<svg aria-hidden="true" style="position:absolute;width:0;height:0;overflow:hidden" xmlns="http://www.w3.org/2000/svg">
    <defs>
        <symbol id="arrow" viewBox="0 0 32 32">
            <path
                d="m19.414 27.414 10-10a2 2 0 0 0 0-2.828l-10-10a2 2 0 1 0-2.828 2.828L23.172 14H4a2 2 0 1 0 0 4h19.172l-6.586 6.586c-.39.39-.586.902-.586 1.414s.195 1.024.586 1.414a2 2 0 0 0 2.828 0z" />
        </symbol>
        <symbol id="icon-untitled" viewBox="0 0 43 32">
            <path fill="#e1e1e1" style="fill: var(--color1, #e1e1e1)"
                d="M32.014 0c1.929 0 3.75 0.52 5.464 1.561s3.107 2.537 4.179 4.488c1.029 1.951 1.543 4.249 1.543 6.894s-0.643 5.225-1.929 7.74c-0.429 0.911-1.2 2.081-2.314 3.512-1.157 1.431-2.229 2.667-3.214 3.707l-4.050 4.098-2.893-4.813c2.014-1.257 3.793-2.818 5.336-4.683 1.543-1.821 2.314-3.491 2.314-5.008 0-0.78-0.171-1.409-0.514-1.886-1.5 1.084-3.171 1.626-5.014 1.626-1.329 0-2.593-0.412-3.793-1.236-1.243-0.78-2.229-1.821-2.957-3.122-0.771-1.258-1.157-2.558-1.157-3.902 0-1.518 0.45-2.97 1.35-4.358 0.857-1.388 1.993-2.515 3.407-3.382 1.371-0.824 2.786-1.236 4.243-1.236zM8.936 0c1.929 0 3.75 0.52 5.464 1.561s3.107 2.537 4.179 4.488c1.029 1.951 1.543 4.249 1.543 6.894 0 1.864-0.236 3.534-0.707 5.008-0.471 1.518-1.286 3.1-2.443 4.748-1.114 1.561-2.164 2.862-3.15 3.902-0.986 1.084-2.7 2.884-5.143 5.398l-2.893-4.813c2.014-1.257 3.793-2.818 5.336-4.683 1.543-1.821 2.314-3.491 2.314-5.008 0-0.78-0.171-1.409-0.514-1.886-1.5 1.084-3.171 1.626-5.014 1.626-1.329 0-2.593-0.412-3.793-1.236-1.243-0.78-2.229-1.821-2.957-3.122-0.771-1.258-1.157-2.558-1.157-3.902 0-1.518 0.429-2.97 1.286-4.358s1.993-2.515 3.407-3.382c1.371-0.824 2.786-1.236 4.243-1.236z">
            </path>
        </symbol>
        <symbol id="icon-Vector-7" viewBox="0 0 35 32">
            <path fill="#d31342" style="fill: var(--color2, #d31342)"
                d="M32.64 15.401c0.599-0.65 0.541-1.646-0.129-2.225l-14.772-12.75c-0.671-0.578-1.745-0.566-2.402 0.027l-14.822 13.403c-0.656 0.594-0.689 1.589-0.071 2.222l0.372 0.382c0.617 0.633 1.613 0.708 2.224 0.168l1.108-0.979v14.326c0 0.879 0.722 1.591 1.612 1.591h5.778c0.89 0 1.612-0.712 1.612-1.591v-10.023h7.37v10.023c-0.013 0.878 0.624 1.59 1.515 1.59h6.123c0.89 0 1.613-0.711 1.613-1.59v-14.124c0 0 0.306 0.264 0.683 0.592s1.168 0.065 1.767-0.586l0.42-0.455z">
            </path>
        </symbol>
        <symbol id="icon-Ellipse-5" viewBox="0 0 32 32">
            <path fill="#c7133e" style="fill: var(--color1, #c7133e)"
                d="M32 16c0 8.837-7.163 16-16 16s-16-7.163-16-16c0-8.837 7.163-16 16-16s16 7.163 16 16z"></path>
        </symbol>
        <symbol id="icon-Vector-btn" viewBox="0 0 26 32">
            <path fill="none" stroke="#d41443" style="stroke: var(--color1, #d41443)" stroke-linejoin="round" stroke-linecap="round" stroke-miterlimit="4" stroke-width="6.4" d="M5.171 3.2l14.17 12.8-14.17 12.8"></path>
        </symbol>
        <symbol id="about-cros" viewBox="0 0 32 32">
<path d="M23.733 10.304l-1.504-1.504-5.963 5.963-5.963-5.963-1.504 1.504 5.963 5.963-5.963 5.963 1.504 1.504 5.963-5.963 5.963 5.963 1.504-1.504-5.963-5.963 5.963-5.963z"></path>
</symbol>
<symbol id="facebook" viewBox="0 0 16 32"><path fill="#fff" style="fill:var(--color1, #fff)" d="M14.143 15.971H10.11v14.865H3.998V15.971H1.092v-5.222h2.906V7.367c0-2.417 1.142-6.204 6.167-6.204l4.527.019v5.072h-3.284c-.538 0-1.297.272-1.297 1.425v3.073h4.567l-.534 5.219z"/></symbol>
<symbol id="github" viewBox="0 0 32 32"><path fill="#fff" style="fill:var(--color1, #fff)" d="M16 0C7.211 0 0 7.211 0 16c0 7.499 5.262 14.312 12.25 16v-5.293a3.921 3.921 0 0 1-2.062-.06l.028.007c-.946-.278-1.714-.909-2.285-1.869-.363-.613-1.008-1.28-1.68-1.23l-.165-1.867c1.454-.125 2.71.886 3.456 2.139.333.558.715.885 1.205 1.029.472.141.981.074 1.573-.136.149-1.186.693-1.629 1.104-2.256-4.168-.621-5.829-2.832-6.488-4.576-.874-2.318-.405-5.213 1.139-7.043.03-.035.085-.128.064-.192-.709-2.141.154-3.91.186-4.098.818.24.95-.243 3.552 1.336l.448.27c.189.112.128.048.317.032a13.246 13.246 0 0 1 3.349-.469h.01c1.136.014 2.272.176 3.403.483l.146.016c-.013-.003.04-.01.128-.062 3.248-1.968 3.131-1.325 4.003-1.608.032.189.882 1.987.182 4.099-.096.291 2.816 2.957 1.202 7.235-.659 1.744-2.32 3.957-6.486 4.578.534.816 1.176 1.248 1.173 2.928v6.606c6.986-1.688 12.25-8.501 12.25-16 0-8.789-7.211-16-16-16z"/></symbol>
<symbol id="telegram" viewBox="0 0 44 32"><path fill="#fff" style="fill:var(--color1, #fff)" d="m17.342 21.048-.674 8.86c.966 0 1.384-.388 1.886-.852l4.526-4.04 9.38 6.414c1.72.894 2.934.422 3.398-1.478L42.016 3.02c.548-2.374-.92-3.302-2.594-2.72L3.228 13.234c-2.47.896-2.434 2.18-.42 2.766l9.252 2.684L33.554 6.132c1.012-.626 1.932-.28 1.176.346l-17.39 14.57z"/></symbol>

<symbol id="vector" viewBox="0 0 22 32">
<path stroke="#fff" style="stroke: var(--color1, #fff)" stroke-linejoin="round" stroke-linecap="round" stroke-miterlimit="4" stroke-width="6.4" d="M4.488 3.2l13.7 12.8-13.7 12.8"></path>
</symbol>
<symbol id="vector-pink" viewBox="0 0 22 32">
<path stroke="#d41443" style="stroke: var(--color1, #d41443)" stroke-linejoin="round" stroke-linecap="round" stroke-miterlimit="4" stroke-width="6.4" d="M3.471 3.2l13.7 12.8-13.7 12.8"></path>
</symbol>
<symbol id="close-black" viewBox="0 0 32 32">
<path d="M26.667 7.303l-1.97-1.97-7.808 7.808-7.808-7.808-1.97 1.97 7.808 7.808-7.808 7.808 1.97 1.97 7.808-7.808 7.808 7.808 1.97-1.97-7.808-7.808 7.808-7.808z"></path>
</symbol>
<symbol id="person-black" viewBox="0 0 32 32">
<path d="M16 16c2.946 0 5.333-2.388 5.333-5.333s-2.388-5.333-5.333-5.333v0c-2.946 0-5.333 2.388-5.333 5.333s2.388 5.333 5.333 5.333v0zM16 18.667c-3.561 0-10.667 1.787-10.667 5.333v1.333c0 0.732 0.599 1.333 1.333 1.333h18.667c0.732 0 1.333-0.601 1.333-1.333v-1.333c0-3.547-7.108-5.333-10.667-5.333z"></path>
</symbol>
<symbol id="phone-black" viewBox="0 0 32 32">
<path d="M24.882 19.774l-3.268-0.373c-0.090-0.011-0.194-0.018-0.3-0.018-0.707 0-1.347 0.287-1.81 0.75l-2.368 2.368c-3.669-1.894-6.585-4.81-8.427-8.372l-0.051-0.108 2.382-2.377c0.463-0.463 0.75-1.103 0.75-1.81 0-0.106-0.006-0.21-0.019-0.312l0.001 0.012-0.373-3.243c-0.155-1.287-1.24-2.276-2.557-2.276-0.001 0-0.002 0-0.003 0h-2.226c-1.454 0-2.663 1.209-2.574 2.661 0.683 10.987 9.47 19.762 20.444 20.444 1.452 0.089 2.663-1.12 2.663-2.574v-2.226c0-0.004 0-0.008 0-0.012 0-1.308-0.985-2.386-2.253-2.532l-0.012-0.001z"></path>
</symbol>
<symbol id="email-black" viewBox="0 0 32 32">
<path d="M26.667 5.333h-21.333c-1.467 0-2.652 1.2-2.652 2.667l-0.014 16c0 1.467 1.2 2.667 2.667 2.667h21.333c1.467 0 2.667-1.2 2.667-2.667v-16c0-1.467-1.2-2.667-2.667-2.667zM26.133 11.001l-9.426 5.892c-0.201 0.126-0.446 0.2-0.708 0.2s-0.506-0.075-0.713-0.204l0.006 0.003-9.426-5.892c-0.336-0.201-0.557-0.562-0.557-0.975 0-0.625 0.507-1.132 1.132-1.132 0.233 0 0.449 0.070 0.629 0.19l-0.004-0.003 8.933 5.586 8.933-5.588c0.176-0.118 0.392-0.188 0.624-0.188 0.625 0 1.132 0.507 1.132 1.132 0 0.413-0.221 0.775-0.552 0.972l-0.005 0.003z"></path>
</symbol>
<symbol id="check" viewBox="0 0 42 32">
<path fill="#fff" style="fill: var(--color1, #fff); stroke: var(--color1, #fff)" stroke="#fff" stroke-linejoin="miter" stroke-linecap="butt" stroke-miterlimit="4" stroke-width="0.64" d="M6.262 15.206l-0.221-0.211-0.221 0.208-3.085 2.925 0.243 0.234 11.408 10.88 0.221-0.211 24.256-23.139-0.243-0.23-3.043-2.902-0.221 0.211-20.97 19.987-8.125-7.75z"></path>
</symbol>
<symbol id="icon-burger" viewBox="0 0 32 32">
<path d="M6.4 11.734v-2.134h19.2v2.134h-19.2zM6.4 17.066h19.2v-2.133h-19.2v2.133zM6.4 22.4h19.2v-2.134h-19.2v2.134z"></path>
</symbol>
</symbol>

<symbol id="icon-mob-close"  viewBox="0 0 32 32">
<path d="M23.733 10.304l-1.504-1.504-5.963 5.963-5.963-5.963-1.504 1.504 5.963 5.963-5.963 5.963 1.504 1.504 5.963-5.963 5.963 5.963 1.504-1.504-5.963-5.963 5.963-5.963z"></path>
</symbol>



<symbol id="circle" viewBox="0 0 24 28"><path d="M24 14c0 6.625-5.375 12-12 12S0 20.625 0 14 5.375 2 12 2s12 5.375 12 12z"/></symbol>
<svg id="ic1" xmlns="http://www.w3.org/2000/svg" data-name="color copy 2" viewBox="0 0 48 48"><path fill="#efcfb3" d="M35.12 25.78v6.43a1.093 1.093 0 0 1-1.09 1.09h-1.51l-.13 1.5-1.07 12.45H16.6L15.53 34.8l-.13-1.5h-1.51a1.093 1.093 0 0 1-1.09-1.09v-6.43a1.1 1.1 0 0 1 1.09-1.1h20.14a1.1 1.1 0 0 1 1.09 1.1Z"/><path fill="#e5be9d" d="m32.52 33.3-.13 1.49v.01l-1 11.62-.07.83H16.6L15.53 34.8l-.13-1.5h17.12z"/><path fill="#efcfb3" d="M32.39 34.79v.01l-1 11.62H23a3.213 3.213 0 0 1-3.21-2.99v-.05l-.47-8.59Z"/><path fill="#00b2a8" d="M33.64 21.82a9.777 9.777 0 0 1-.25 2.18 9.672 9.672 0 0 1-8.73 7.46c-.23.02-.47.03-.7.03a9.673 9.673 0 0 1-9.68-9.67 9.5 9.5 0 0 1 .63-3.43 8.541 8.541 0 0 1 .64-1.37 9.681 9.681 0 0 1 8.41-4.88 10.047 10.047 0 0 1 1.11.06 9.708 9.708 0 0 1 7.15 4.56 6.551 6.551 0 0 1 .32.58 7.515 7.515 0 0 1 .36.76 9.571 9.571 0 0 1 .74 3.72Z"/><path fill="#00cdbb" d="M33.64 21.82a9.777 9.777 0 0 1-.25 2.18H20.02a2.41 2.41 0 0 1-2.44-2.345v-.025a8.652 8.652 0 0 1 .456-2.668 1.072 1.072 0 0 1 1.1-.735c1.121.088 3.257.233 5.23.233a34.847 34.847 0 0 0 6.29-.48 12.315 12.315 0 0 0 1.88-.64 7.515 7.515 0 0 1 .36.76 9.571 9.571 0 0 1 .744 3.72Z"/><path fill="#ff7a9e" d="M31.59 7.12a3.751 3.751 0 0 0-2.31-3.62l-.01-.01v.03a1.548 1.548 0 0 0-.01-.22 2.824 2.824 0 0 0-1.84-2.18 9.91 9.91 0 0 0-1.09-.37 1.355 1.355 0 0 1 .31.9c-.15 1.44-.86 1.65-4.49 1.52a5.046 5.046 0 0 0-3.48.84 2.2 2.2 0 0 0-.7 1.05 1.625 1.625 0 0 0 .57 1.6l.09.07a2.743 2.743 0 0 0-.319.087c-.122.038-.226.079-.339.119-.143.05-.293.1-.421.154l-.045.017a.548.548 0 0 0-.06.038A3.656 3.656 0 0 0 15.82 8.53v.01a3.264 3.264 0 0 0-.31.71 2.313 2.313 0 0 0 .56 2.06 4.132 4.132 0 0 0-2.57 2.5 2.745 2.745 0 0 0 1.32 2.91s.32.14.73.3a6.18 6.18 0 0 0 1.04.32 37.289 37.289 0 0 0 6.82.54 33.472 33.472 0 0 0 6.64-.46 6.936 6.936 0 0 0 2.17-.66 5.168 5.168 0 0 0 .62-.35 4.108 4.108 0 0 0 1.55-2.63 7.213 7.213 0 0 0 .19-1.68 5.339 5.339 0 0 0-2.99-4.98Z"/><path fill="#daa277" d="M23.5 33.3h1v1.49h-1z"/><path fill="#e4ad80" d="M23.5 46.42h1v.83h-1z"/><path fill="#e5be9d" d="M23.5 34.79h1v11.63h-1z"/><path fill="#daa277" d="M20.33 34.79h-1l-.08-1.49h1l.08 1.49z"/><path fill="#e4ad80" d="M21.01 47.25H20l-.21-3.82a3.19 3.19 0 0 0 1.13 2.23Z"/><path fill="#dcb798" d="M19.79 43.43v-.05l-.46-8.59h1l.59 10.87a3.19 3.19 0 0 1-1.13-2.23Z"/><path fill="#daa277" d="m28.75 33.3-.08 1.49h-1l.08-1.49h1z"/><path fill="#e4ad80" d="m28.04 46.42-.04.83h-1.01l.05-.83h1z"/><path fill="#e5be9d" d="m28.67 34.79-.63 11.63h-1l.63-11.63h1z"/><path fill="#4be8ce" d="M22.2 20.75a.5.5 0 0 1-.363-.155l-.681-.718a.5.5 0 1 1 .726-.688l.681.717a.5.5 0 0 1-.363.844zm6.093.718A.5.5 0 0 1 27.8 21l-.106-1.434a.5.5 0 0 1 .462-.535.5.5 0 0 1 .535.462l.106 1.434a.5.5 0 0 1-.462.535zm-8.911 1.748a.5.5 0 0 1-.161-.973l.8-.273a.5.5 0 1 1 .323.947l-.8.272a.477.477 0 0 1-.162.027zm11.459-.664a.5.5 0 0 1-.1-.989l.711-.151a.5.5 0 0 1 .208.979l-.711.151a.531.531 0 0 1-.108.01zM16.781 21.5a.5.5 0 0 1-.443-.732l.479-.915a.5.5 0 1 1 .886.464l-.479.915a.5.5 0 0 1-.443.268zm8.988 1.646a.5.5 0 0 1-.212-.047L24.5 22.6a.5.5 0 1 1 .424-.906l1.059.5a.5.5 0 0 1-.213.952z"/><path fill="#e4ad80" d="M35.12 25.78v6.43a1.093 1.093 0 0 1-1.09 1.09H13.89a1.093 1.093 0 0 1-1.09-1.09v-6.43a1.1 1.1 0 0 1 1.09-1.1h20.14a1.1 1.1 0 0 1 1.09 1.1Z"/><path fill="#e5be9d" d="M35.12 25.78v6.33H20.012a3.472 3.472 0 0 1-3.462-3.462V24.68h17.48a1.1 1.1 0 0 1 1.09 1.1Z"/><path fill="#ff89b1" d="M34.58 12.1a7.213 7.213 0 0 1-.19 1.68 2.747 2.747 0 0 1-.86 1 5.665 5.665 0 0 1-2.57 1.01 27.737 27.737 0 0 1-6.14.47 31.582 31.582 0 0 1-6.3-.55 8.257 8.257 0 0 1-1.63-.62 2.826 2.826 0 0 1-1.22-2.91 3.712 3.712 0 0 1 .4-.87h.01a13.221 13.221 0 0 1 5.42-.71c6.98.26 9.52-.13 9.99-2.7a4.387 4.387 0 0 0 .1-.78 5.339 5.339 0 0 1 2.99 4.98zm-5.32-8.8c-.41 2.07-2.37 2.41-7.58 2.23a8.131 8.131 0 0 0-1.659.114 1.2 1.2 0 0 1-1.362-1.611l.011-.023a5.046 5.046 0 0 1 3.48-.84c3.63.13 4.34-.08 4.49-1.52a1.355 1.355 0 0 0-.31-.9 9.91 9.91 0 0 1 1.09.37 2.824 2.824 0 0 1 1.84 2.18z"/><path fill="#ff89b1" d="M31.59 7.12a3.819 3.819 0 0 1-.06.56c-.96 1.7-3.68 1.95-9.65 1.73a17.117 17.117 0 0 0-3.335.27A1.431 1.431 0 0 1 17.3 7.239a.925.925 0 0 1 .209-.132 9.166 9.166 0 0 1 4.081-.617c5.3.18 7.24-.17 7.61-2.34a3.571 3.571 0 0 0 .07-.63v-.03l.01.01a3.751 3.751 0 0 1 2.31 3.62Z"/></svg><svg id="ic2" xmlns="http://www.w3.org/2000/svg" data-name="color copy 2" viewBox="0 0 48 48"><path fill="#acd17b" d="M32.56 13.52a8.56 8.56 0 1 1-12.42-7.64 8.635 8.635 0 0 1 7.72 0 8.551 8.551 0 0 1 4.7 7.64Z"/><path fill="#acd17b" d="M32.54 12.89H15.46a8.577 8.577 0 0 1 4.68-7.01c.15-.07.29-.14.45-.2a6.239 6.239 0 0 1 .94-.35A8.389 8.389 0 0 1 24 4.96a4.015 4.015 0 0 1 .49.02 8.052 8.052 0 0 1 1.98.35 6.123 6.123 0 0 1 .93.35 3.76 3.76 0 0 1 .46.2 8.585 8.585 0 0 1 4.58 6.22 6.82 6.82 0 0 1 .1.79Z"/><path fill="#acd17b" d="M32.44 12.1h-9.48a2.534 2.534 0 0 1-2.13-3.89 9.066 9.066 0 0 1 .92-1.22 7.468 7.468 0 0 1 .76-.73 8.122 8.122 0 0 1 1.94-1.27c.01 0 .03-.01.04-.01a8.052 8.052 0 0 1 1.98.35 3.734 3.734 0 0 1 .56.2 2.388 2.388 0 0 1 .37.15 3.76 3.76 0 0 1 .46.2 8.585 8.585 0 0 1 4.58 6.22Z"/><path fill="#FFAFBD" d="M27.36 42.89v1.46s.07.03.2.07a1.647 1.647 0 0 0 .22.09c.97.39 3.33 1.4 3.98 2.3a.717.717 0 0 1 .18.44H16.06c0-1.21 4.58-2.9 4.58-2.9v-1.46a1.823 1.823 0 0 0-.43-.73l-.02-.02a1.775 1.775 0 0 0-.67-.36l-5.14-24.57v-4.32h19.24v4.32l-5.14 24.57a1.775 1.775 0 0 0-.67.36l-.02.02a1.823 1.823 0 0 0-.43.73Z"/><path fill="#ffc3a0" d="M27.36 42.89v1.46s.07.03.2.07a1.647 1.647 0 0 0 .22.09c.97.39 3.33 1.4 3.98 2.3h-4.849a2.775 2.775 0 0 1-2.772-2.783v-.847a.749.749 0 0 0-.21-.5l-.28-.28a2.916 2.916 0 0 1-.81-1.49L21.38 26.99c-.6-3.991-1.221-7.693-.7-9.81l.47-1.38a4.279 4.279 0 0 1 4.05-2.91h8.42v4.32l-5.14 24.57a1.775 1.775 0 0 0-.67.36l-.02.02a1.823 1.823 0 0 0-.43.73Z"/><path fill="#a385d2" d="M27.03 5.53a3.734 3.734 0 0 0-.56-.2A2.592 2.592 0 0 1 24 6.57a3.457 3.457 0 0 1-1.49-.31 7.468 7.468 0 0 0-.76.73 4.27 4.27 0 0 0 2.25.58 3.505 3.505 0 0 0 3.37-1.81c.01-.03.03-.05.03-.08a2.388 2.388 0 0 0-.37-.15Z"/><path fill="#9c7acb" d="M22.51 6.26a7.468 7.468 0 0 0-.76.73 2.719 2.719 0 0 1-1.16-1.31 6.239 6.239 0 0 1 .94-.35 1.9 1.9 0 0 0 .98.93Z"/><path fill="#e65b62" d="M26.62 4.62a1.642 1.642 0 0 1-.15.71A2.592 2.592 0 0 1 24 6.57c-1.33 0-2.62-.63-2.62-1.95 0-1.46 1.55-3.8 2.57-3.86A.09.09 0 0 1 24 .75c1.02 0 2.62 2.37 2.62 3.87Z"/><path fill="#ff5f65" d="M26.62 4.62a1.642 1.642 0 0 1-.15.71 3.347 3.347 0 0 1-1.42.3c-1.27 0-2.5-.6-2.5-1.85a5.132 5.132 0 0 1 1.4-3.02.09.09 0 0 1 .05-.01c1.02 0 2.62 2.37 2.62 3.87Z"/></svg><svg id="ic3" viewBox="0 0 64 64" xmlns="http://www.w3.org/2000/svg"><defs><style>.cls-1{fill:#f3f9ff}.cls-9{fill:#1b212d}</style></defs><g data-name="Ice Cream" id="Ice_Cream"><path class="cls-1" d="m16.16 44 2.78 16h24.67l2.78-16Z" id="rect7253-6"/><path d="M27.65 44a11.72 11.72 0 0 0 14.72.12L39.61 60h4l2.78-16Z" id="path9610" style="fill:#FFB8CA"/><path class="cls-1" d="M42.83 17.63 46.62 8h3.66a2 2 0 0 0 0-4h-5.2a2 2 0 0 0-1.93 1.48l-2.67 7Z" id="path7270-3"/><path d="M20.12 23.64a12.18 12.18 0 0 1-.6-3.69 11.78 11.78 0 1 1 23 3.69l-5 10.68-12.91 1Z" id="circle6973-8-7" style="fill:#FFB8CA"/><path d="M23 11.53a11.93 11.93 0 0 0-1.46 1.78 11.76 11.76 0 0 1 18.75 9.47 11.87 11.87 0 0 1-.59 3.69L36 34.35l1.49-.12 5-10.69A11.77 11.77 0 0 0 23 11.53Z" id="path9169-4" style="fill:#E17992"/><path d="M31.3 43.74a11.77 11.77 0 1 0 7.78-20.61h-.14a11.76 11.76 0 0 0-7.64 2.95Z" id="path6953-3-1" style="fill:#F0D1A5"/><path d="M31.3 26.08v1A11.65 11.65 0 0 1 36.11 26h.14a11.77 11.77 0 0 1 9.61 18.56 11.77 11.77 0 0 0-6.78-21.39h-.15a11.75 11.75 0 0 0-7.63 2.95Z" id="path9171-8" style="fill:#e8c086"/><path d="M11.74 34.9a11.77 11.77 0 0 0 11.78 11.78 11.39 11.39 0 0 0 1.54-.11v3.72a2.25 2.25 0 0 0 4.5 0V45a11.75 11.75 0 1 0-17.82-10.1Z" id="circle6957-94-5" style="fill:#C2E297"/><path d="M15.14 26.65a12.07 12.07 0 0 0-1.25 1.51A11.83 11.83 0 0 1 20.63 26a11.71 11.71 0 0 1 9.64 18.53 11.76 11.76 0 1 0-15.13-17.88Z" id="path9173-9" style="fill:#acd17b"/><path class="cls-9" d="M10.72 34.81a12.69 12.69 0 0 0 3.74 9c.25.25.51.47.78.7L18 60.17a1 1 0 0 0 1 .83h24.61a1 1 0 0 0 1-.83l2.72-15.63c.26-.22.52-.45.77-.7a12.77 12.77 0 0 0-4.41-20.93 13.05 13.05 0 0 0 .37-3.05 12.47 12.47 0 0 0-.19-2.12L47.3 9h3a3 3 0 0 0 0-6h-5.2a3 3 0 0 0-2.9 2.17l-2.08 5.48a12.78 12.78 0 0 0-21.62 9.21 13.05 13.05 0 0 0 .39 3.14 12.75 12.75 0 0 0-8.17 11.81ZM42.77 59h-23l-.21-1.22H43Zm.56-3.22H19.22l-1.68-9.67A12.76 12.76 0 0 0 24 47.57v2.62a3.25 3.25 0 0 0 6.5 0v-4.73c.25-.17.48-.36.72-.55A12.75 12.75 0 0 0 45 46.11Zm6.5-21a10.76 10.76 0 0 1-17 8.74 12.84 12.84 0 0 0 3.49-8.74 12.65 12.65 0 0 0-3.49-8.74 10.72 10.72 0 0 1 6.14-2h.14a10.78 10.78 0 0 1 10.72 10.77Zm-5.75-29a.42.42 0 0 0 0-.1 1 1 0 0 1 1-.74h5.2a1 1 0 0 1 0 2h-3.66a1 1 0 0 0-.93.63l-2.76 7a12.56 12.56 0 0 0-1.32-2.27Zm-20.42 6.4a10.78 10.78 0 0 1 18.39 7.62 10.83 10.83 0 0 1-.29 2.47 12.6 12.6 0 0 0-2.69-.27h-.17a12.69 12.69 0 0 0-7.63 2.67 12.62 12.62 0 0 0-7.74-2.62h-.1a12.52 12.52 0 0 0-2.62.29 10.68 10.68 0 0 1 2.85-10.14Zm-.21 11.85a10.74 10.74 0 0 1 5.58 20 1 1 0 0 0-.49.86v5.28a1.25 1.25 0 0 1-2.5 0v-3.69a1 1 0 0 0-1-1h-.13a11.12 11.12 0 0 1-1.41.09 10.78 10.78 0 0 1-10.78-10.76 10.66 10.66 0 0 1 10.73-10.72Z"/><path class="cls-9" d="M22.21 42.33a1 1 0 0 0 1 1 8.14 8.14 0 0 0 8.13-8.13 1 1 0 0 0-2 0 6.14 6.14 0 0 1-6.13 6.13 1 1 0 0 0-1 1ZM17.6 31.25a1 1 0 0 0 .9.56 1 1 0 0 0 .43-.1 1 1 0 0 0 .46-1.34l-.49-1a1 1 0 0 0-1.8.88ZM27.05 16a1 1 0 0 0 .5.14 1 1 0 0 0 .86-.5l.57-1a1 1 0 0 0-1.74-1l-.56 1a1 1 0 0 0 .37 1.36ZM37.09 17.34a1 1 0 1 0 1.85-.76l-.43-1a1 1 0 0 0-1.85.76ZM38.67 26.16a1 1 0 0 0-1.36.37l-.56 1a1 1 0 0 0 .36 1.37 1 1 0 0 0 1.37-.37l.56-1a1 1 0 0 0-.37-1.37ZM46.22 32.66a1 1 0 0 0 .87.5.93.93 0 0 0 .5-.14 1 1 0 0 0 .41-1.36l-.56-1a1 1 0 1 0-1.73 1ZM43 41.63h.13l1.11-.14a1 1 0 0 0 .86-1.12 1 1 0 0 0-1.1-.87l-1.11.14a1 1 0 0 0-.89 1.12 1 1 0 0 0 1 .87ZM38.82 34.9a1 1 0 0 0 .63 1.27l1.07.36a1.13 1.13 0 0 0 .32 0 1 1 0 0 0 .32-1.95l-1.07-.35a1 1 0 0 0-1.27.67ZM22.71 27.21h.15L24 27a1 1 0 0 0-.3-2l-1.11.17a1 1 0 0 0 .15 2ZM17.09 39.37a1.12 1.12 0 0 0 .43.1 1 1 0 0 0 .91-.58l.48-1A1 1 0 0 0 17.1 37l-.48 1a1 1 0 0 0 .47 1.37ZM23.69 31.82a1 1 0 1 0-.64 1.89l1.06.36a1 1 0 0 0 .32.06 1 1 0 0 0 .95-.68 1 1 0 0 0-.63-1.27ZM29 31.94a1 1 0 0 0 .93.62 1 1 0 0 0 .92-1.38l-.43-1a1 1 0 0 0-1.3-.55 1 1 0 0 0-.55 1.31ZM32 20.28l1.07.36a.87.87 0 0 0 .32.06 1 1 0 0 0 .95-.68 1 1 0 0 0-.63-1.27l-1.07-.36a1 1 0 0 0-.64 1.89Z"/></g></svg><symbol id="check" viewBox="0 0 32 32"><path d="m4.817 15.39-.17-.162-.17.16-2.373 2.25.187.18 8.775 8.369.17-.162L29.894 8.226l-.187-.177-2.341-2.233-.17.162-16.13 15.375-6.25-5.962z"/></symbol><symbol id="email-black" viewBox="0 0 32 32"><path d="M26.667 5.333H5.334A2.662 2.662 0 0 0 2.682 8l-.014 16c0 1.467 1.2 2.667 2.667 2.667h21.333c1.467 0 2.667-1.2 2.667-2.667V8c0-1.467-1.2-2.667-2.667-2.667zm-.534 5.668-9.426 5.892a1.343 1.343 0 0 1-1.421-.004l.006.003L5.866 11A1.133 1.133 0 1 1 7.07 9.083l-.004-.003 8.933 5.586 8.933-5.588a1.132 1.132 0 1 1 1.204 1.916l-.005.003z"/></symbol><symbol id="person" viewBox="0 0 32 32"><path d="M16 16a5.333 5.333 0 1 0 0-10.666A5.333 5.333 0 1 0 16 16zm0 2.667c-3.561 0-10.667 1.787-10.667 5.333v1.333c0 .732.599 1.333 1.333 1.333h18.667c.732 0 1.333-.601 1.333-1.333V24c0-3.547-7.108-5.333-10.667-5.333z"/></symbol><symbol id="phone-black" viewBox="0 0 32 32"><path d="m24.882 19.774-3.268-.373a2.552 2.552 0 0 0-2.11.732l-2.368 2.368c-3.669-1.894-6.585-4.81-8.427-8.372l-.051-.108 2.382-2.377a2.552 2.552 0 0 0 .731-2.122l.001.012-.373-3.243a2.578 2.578 0 0 0-2.557-2.276H6.613c-1.454 0-2.663 1.209-2.574 2.661.683 10.987 9.47 19.762 20.444 20.444 1.452.089 2.663-1.12 2.663-2.574v-2.238a2.549 2.549 0 0 0-2.253-2.532l-.012-.001z"/></symbol><symbol id="telegram" viewBox="0 0 32 32"><path d="M32 0 0 18l10.227 3.787L26 7 14.003 23.187l.009.003-.012-.003V32l5.735-6.691L27.002 28l4.999-28z"/></symbol><symbol id="cross" viewBox="0 0 32 32"><path d="m26.667 7.303-1.97-1.97-7.808 7.808-7.808-7.808-1.97 1.97 7.808 7.808-7.808 7.808 1.97 1.97 7.808-7.808 7.808 7.808 1.97-1.97-7.808-7.808 7.808-7.808z"/></symbol><symbol id="astronaut" viewBox="0 0 32 32"><path d="M31.974 4.524a.535.535 0 0 0-.427-.362h-.003l-1.911-.278-.855-1.731c-.179-.365-.777-.365-.956 0l-.855 1.731-1.911.278a.534.534 0 0 0-.296.91l1.383 1.348-.326 1.903a.532.532 0 0 0 .774.562l1.709-.899 1.709.899a.534.534 0 0 0 .773-.565v.003l-.326-1.903 1.383-1.348a.535.535 0 0 0 .134-.55l.001.004zm-2.463 1.327a.53.53 0 0 0-.153.472l.191 1.114-1-.526a.525.525 0 0 0-.501.001l.003-.001-1 .526.191-1.114a.53.53 0 0 0-.152-.472l-.811-.79 1.119-.162a.532.532 0 0 0 .402-.292l.5-1.013.5 1.013a.532.532 0 0 0 .402.292l1.119.162-.809.79zm-3.377 14.671h-1.067v1.067h1.067v-1.067zm0 2.134h-1.067v1.066h1.067v-1.066zm1.066-1.067h-1.067v1.067H27.2v-1.067zm-2.133 0H24v1.067h1.067v-1.067zm-2.667 4.8h-1.067v1.067H22.4v-1.067zm0 2.134h-1.067v1.067H22.4v-1.067zm1.067-1.067H22.4v1.067h1.067v-1.067zm-2.133 0h-1.067v1.067h1.067v-1.067zM16 24.256h-1.066v1.067H16v-1.067zm0 2.133h-1.066v1.067H16v-1.067zm1.067-1.067H16v1.067h1.067v-1.067zm-2.133 0h-1.067v1.067h1.067v-1.067zm-9.067-19.2H4.801v1.066h1.066V6.122zm0 2.134H4.801v1.066h1.066V8.256zm1.066-1.067H5.866v1.067h1.066V7.189zm-2.133 0H3.733v1.067H4.8V7.189z"/><path d="M24.715 14.16a1.774 1.774 0 0 0-1.179-.703l-.009-.001a1.769 1.769 0 0 0-1.344.355l.004-.003-1.253.96-1.898 1.417-1.358-.541c2.421-1.086 4.113-3.508 4.113-6.32 0-3.823-3.122-6.934-6.961-6.934S7.869 5.5 7.869 9.324c0 1.386.415 2.674 1.12 3.759l-2.768-.024c-.009 0-.016.005-.023.005a.511.511 0 0 0-.159.033l.004-.001c-.013.005-.026.007-.038.013-.006.003-.013.003-.019.006l-3.233 1.596-.001.001-1.893.91a.5.5 0 0 0-.065.036l.001-.001a1.782 1.782 0 0 0-.594 2.306l-.005-.01c.22.424.592.742 1.043.885l.013.003a1.772 1.772 0 0 0 1.388-.133l-.009.005 1.388-.738 2.264-1.169 1.357-.008-5.442 5.415-.001.001-1.339 1.333a1.643 1.643 0 0 0-.491 1.173v.005a1.668 1.668 0 0 0 1.667 1.664h.002a1.67 1.67 0 0 0 1.18-.485l1.314-1.309 1.741-1.3.901.897L4.07 27.28a1.643 1.643 0 0 0-.491 1.173v.004a1.662 1.662 0 0 0 1.666 1.664h.003a1.67 1.67 0 0 0 1.18-.485l4.488-4.472c.007-.006.016-.009.022-.016l5.166-5.658 3.471.494a.474.474 0 0 0 .262-.032c.017-.006.032-.015.049-.023.019-.01.039-.015.058-.027l3.213-2.133c.012-.008.018-.021.029-.03.013-.01.029-.014.041-.026l1.271-1.191c.348-.326.564-.787.564-1.3 0-.4-.132-.769-.355-1.066l.003.005zM2.13 17.77a.706.706 0 0 1-.564.05l.005.001a.717.717 0 0 1-.215-1.258l.002-.001 1.314-.632.316.924.133.389-.992.527zm3.497-1.828-1.548.8-.255-.746-.184-.537 2.027-1.001-.04 1.484zm15.1-6.62c0 .918-.219 1.785-.599 2.56l-4.181-1.899a1.865 1.865 0 0 0-.782-1.384l-.006-.004 1.464-4.861c2.377.757 4.104 2.975 4.104 5.588zm-11.789 0c0-3.235 2.644-5.867 5.894-5.867.253 0 .5.022.745.053l-1.432 4.753c-.019 0-.037-.006-.057-.006h-.001a1.872 1.872 0 0 0-1.872 1.867 1.873 1.873 0 0 0 1.872 1.867h.001c.695 0 1.295-.383 1.618-.944l3.863 1.755a5.891 5.891 0 0 1-4.737 2.39c-3.25 0-5.894-2.632-5.894-5.867zm5.957.8a.805.805 0 0 1-.805.8h-.003a.804.804 0 0 1-.804-.8c0-.441.361-.8.806-.8s.806.359.806.8zM2.464 25.146a.606.606 0 0 1-.855.001.591.591 0 0 1 0-.844l.962-.959.852.848-.959.954zm3.214 3.734a.606.606 0 0 1-.855.001.591.591 0 0 1 0-.844l.963-.959.852.848-.96.955zm3.482-3.469-.001.001-1.765 1.76-.852-.848 1.765-1.757a.527.527 0 0 0 .09-.136c.007-.014.02-.026.026-.04.016-.041.019-.085.026-.128.003-.025.014-.048.014-.073 0-.035-.013-.07-.02-.105-.006-.032-.006-.064-.019-.096a.536.536 0 0 0-.092-.138c-.01-.012-.014-.026-.025-.038h-.001l-.001-.002-1.607-1.6c-.017-.017-.039-.024-.058-.038a.491.491 0 0 0-.084-.056l-.003-.001a.527.527 0 0 0-.09-.031l-.003-.001a.502.502 0 0 0-.101-.02h-.025a.603.603 0 0 0-.075.005h.003c-.036.005-.069.009-.104.021s-.064.027-.094.045c-.02.011-.043.015-.061.029l-1.774 1.324-.901-.897 2.399-2.386 4.36 4.289-.928.919zm6.819-7.017c-.016-.002-.03.004-.046.003l-.027-.001a.562.562 0 0 0-.092.008h.003a.484.484 0 0 0-.187.07l.002-.001a.492.492 0 0 0-.083.061c-.013.011-.028.016-.04.029l-4.698 5.146-4.328-4.256 2.833-2.818a.535.535 0 0 0-.378-.911h-.002l-2.219.013.028-1.607 3.104.027a6.928 6.928 0 0 0 4.978 2.101h.003c.438 0 .864-.046 1.28-.122.04.032.08.064.129.085l2.41.96.152.758.178.886-3.003-.427zm4.041.178-.313-1.558 1.446-1.08.946 1.257-2.08 1.381zm3.753-2.831-.837.785-.931-1.236.831-.637a.735.735 0 0 1 .543-.143.718.718 0 0 1 .621.71.71.71 0 0 1-.226.521z"/><path d="m13.602 18.544-2.143-2.134a.53.53 0 0 0-.752 0l-2.143 2.133a.535.535 0 0 0 0 .756l2.142 2.134a.53.53 0 0 0 .752 0l2.143-2.134a.532.532 0 0 0 0-.756zm-2.519 1.759-1.387-1.381 1.386-1.381 1.387 1.381-1.387 1.381zm6.081-15.232-.258 1.036c.071.018 1.738.452 1.738 2.149h1.067c0-2.017-1.666-2.965-2.547-3.184zm2.547 4.251h-1.067v1.066h1.067V9.322z"/></symbol><symbol id="client-1" viewBox="0 0 28 32"><path d="m4.085 0 4.771 4.517-8.857-.005v21.915h23.149v-8.379l4.766 4.512V.001H4.084zm18.854 17.517L9.411 4.71h13.528v12.807zm-4.2 5.703H3.663V8.482h1.066v13.74H18.74v.997zM7.224 29.345l-.557 1.147-.557-1.147h-.467l.813 1.529v.891h.422v-.891l.811-1.529h-.465zm.7 2.42.196-.564h.938l.197.564h.439l-.916-2.42H8.4l-.914 2.42h.437zm.664-1.906.351 1.004h-.701l.351-1.004zm2.218.945a.544.544 0 0 0-.091.303v.004c0 .204.072.37.214.497s.336.19.575.19a1 1 0 0 0 .618-.195l.136.161h.468l-.355-.421c.14-.191.209-.435.209-.733h-.351a.973.973 0 0 1-.101.444l-.468-.552.165-.12a.922.922 0 0 0 .249-.249l.002-.003a.53.53 0 0 0 .076-.275v-.013a.495.495 0 0 0-.169-.374h-.001a.61.61 0 0 0-.408-.157h-.025.001c-.195 0-.35.056-.465.166s-.173.259-.173.449c0 .078.018.157.054.241.038.083.104.184.197.302-.179.129-.3.24-.36.334zm1.092.536a.613.613 0 0 1-.382.136h-.02a.395.395 0 0 1-.27-.106.36.36 0 0 1-.108-.259v-.014.001c0-.129.067-.245.2-.346l.052-.037.528.624zm-.434-1.073c-.114-.141-.172-.257-.172-.351 0-.081.024-.148.07-.201a.239.239 0 0 1 .178-.081h.01-.001.009c.067 0 .127.026.173.068a.214.214 0 0 1 .072.161v.009a.3.3 0 0 1-.103.226l-.052.041-.184.127zm3.94 1.315c.166-.145.261-.347.286-.605h-.419c-.022.173-.075.296-.158.37s-.208.112-.372.112c-.18 0-.318-.069-.412-.206s-.14-.337-.14-.599v-.214c.003-.259.052-.453.15-.587a.494.494 0 0 1 .422-.201c.157 0 .276.039.357.116s.133.202.153.376h.419c-.027-.265-.121-.47-.285-.615s-.378-.218-.645-.218a.978.978 0 0 0-.525.142.925.925 0 0 0-.345.396l-.002.006a1.396 1.396 0 0 0-.122.576v.03-.001.226c.003.223.045.418.125.587s.193.298.339.39a.955.955 0 0 0 .511.136c.276 0 .497-.072.663-.216zm2.471-.339c.082-.18.123-.388.123-.625v-.158c0-.216-.047-.421-.131-.605l.004.009a.932.932 0 0 0-.35-.406l-.004-.002c-.152-.095-.326-.143-.524-.143s-.372.048-.525.144a.939.939 0 0 0-.354.414c-.079.175-.125.38-.125.595v.032-.002.136c.001.232.043.436.126.613a.95.95 0 0 0 .356.411.98.98 0 0 0 .525.143.971.971 0 0 0 .526-.143.941.941 0 0 0 .352-.413zm-.45-1.369c.102.143.152.349.152.618v.126c0 .272-.05.48-.151.622a.49.49 0 0 1-.429.213h-.017a.503.503 0 0 1-.413-.216l-.001-.002c-.104-.145-.155-.351-.155-.617v-.14c.002-.26.054-.462.156-.603a.498.498 0 0 1 .409-.215h.018-.001c.187 0 .33.072.431.214z"/></symbol><symbol id="client-2" viewBox="0 0 25 32"><path d="M10.532 1.806h-.084a9.985 9.985 0 0 0-.388-.014h-.28c-.244 0-.494.006-.741.018l-.028-.001-.029.001h.001a17.353 17.353 0 0 0-6.576 1.696l.104-.045-.266.128v13.626l.623-.212a23.32 23.32 0 0 1 1.731-.513c1.488-.398 3.202-.638 4.967-.661h.014v1.79c-.223.001-.439.007-.655.018h-.052a20.051 20.051 0 0 0-3.971.619l.139-.031a19.399 19.399 0 0 0-4.666 1.83l.1-.051V2.529A17.896 17.896 0 0 1 5.14.608L5.267.58a17.862 17.862 0 0 1 4.51-.582h.267c.314.008.622.022.91.044.829.06 1.597.187 2.339.378l-.09-.02v1.762a13.17 13.17 0 0 0-2.134-.326l-.045-.003-.044-.004c-.152-.013-.304-.026-.446-.026zm3.101 1.801c.391.03.796.044 1.205.044a19.413 19.413 0 0 0 4.881-.639l-.135.03a19.492 19.492 0 0 0 4.665-1.831l-.101.051v17.163a17.972 17.972 0 0 1-4.664 1.921l-.127.028a17.962 17.962 0 0 1-4.511.581h-.115c-1.177 0-2.319-.147-3.409-.425l.095.021V3.276c.265.062.537.118.814.164.455.077.934.133 1.401.167zm8.734.133-.623.209c-.572.193-1.151.365-1.731.518-1.551.415-3.332.657-5.169.663h-.004c-.406 0-.78-.011-1.141-.034l-.497-.033V19.08l.426.037c.395.035.803.052 1.214.052a16.554 16.554 0 0 0 4.189-.553l-.116.026a16.96 16.96 0 0 0 3.285-1.189l-.102.044.266-.128V3.739zM1.684 25.977a.916.916 0 0 0-.661-.281l-.034.001h.002-.014c-.139 0-.272.028-.393.078l.007-.003a.904.904 0 0 0-.51.512l-.002.006a1.001 1.001 0 0 0-.071.386v2.335c-.006.164.026.328.092.479.055.12.135.226.234.313a.824.824 0 0 0 .32.166c.114.031.231.048.349.048a.985.985 0 0 0 .968-.982v-.261H1.36v.222c0 .07-.013.136-.037.198l.001-.004a.38.38 0 0 1-.089.132.426.426 0 0 1-.255.089.308.308 0 0 1-.286-.125l-.001-.001a.548.548 0 0 1-.082-.289l.001-.024v.001-2.177a.74.74 0 0 1 .075-.349.31.31 0 0 1 .262-.143l.038.002H.986h.012c.107 0 .201.052.26.131l.001.001a.493.493 0 0 1 .101.3v.014-.001.202h.604v-.249c0-.143-.027-.28-.077-.405l.003.007a.955.955 0 0 0-.205-.329zm3.626-.026a1.051 1.051 0 0 0-1.058-.191.965.965 0 0 0-.557.511l-.002.006a1.08 1.08 0 0 0-.089.452v2.239c-.004.158.026.314.089.458a.888.888 0 0 0 .236.313.964.964 0 0 0 .322.197 1.049 1.049 0 0 0 1.059-.198l-.001.001a.948.948 0 0 0 .23-.313c.063-.144.093-.301.089-.458v-2.259c0-.156-.033-.305-.092-.439l.003.007a1.016 1.016 0 0 0-.23-.327zm-.285 3.018.002.035a.398.398 0 0 1-.123.289.446.446 0 0 1-.575 0l.001.001a.398.398 0 0 1-.121-.326v.002-2.239l-.001-.034a.4.4 0 0 1 .123-.289.446.446 0 0 1 .575 0l-.001-.001a.398.398 0 0 1 .121.326v-.002 2.24zm5.047 1v-4.24h-.586l-.771 2.244h-.01l-.777-2.244h-.58v4.239h.606V27.39h.011l.593 1.823h.302l.598-1.823h.01v2.578h.606zm3.441-3.942a.834.834 0 0 0-.342-.232 1.31 1.31 0 0 0-.416-.066h-.024.001-.9v4.24h.604v-1.656h.311c.189.009.376-.031.545-.116a.88.88 0 0 0 .329-.32l.002-.004a1 1 0 0 0 .138-.369c.021-.133.033-.287.033-.444v-.04.002a2.426 2.426 0 0 0-.059-.606.906.906 0 0 0-.223-.39zm-.312 1.292a.538.538 0 0 1-.057.224l.001-.003a.342.342 0 0 1-.154.147l-.002.001a.617.617 0 0 1-.254.054l-.033-.001h.002-.276V26.3h.311l.029-.001c.088 0 .172.02.247.055l-.004-.002a.35.35 0 0 1 .141.154l.001.002a.62.62 0 0 1 .053.236v.282c0 .098.006.201 0 .291H13.2zm3.173-1.59h-.495l-.934 4.24h.604l.177-.911h.823l.178.911h.604l-.958-4.24zm-.557 2.752.297-1.537h.011l.295 1.537h-.604zm4.46-.198h-.011l-.912-2.554h-.581v4.24h.604v-2.55h.012l.923 2.549h.568v-4.239h-.604v2.554zm3.691-2.554-.486 1.686h-.012l-.486-1.686h-.639l.83 2.448v1.791h.604v-1.791l.83-2.447h-.64zM0 31.166h.291v.817h.198v-.817h.289v-.167H0v.168zm2.447-.168-.382.985h.21l.081-.224h.392l.084.224h.215l-.391-.985h-.21zm-.03.595.134-.365.134.365h-.268zm2.449.027h.228v.127a.378.378 0 0 1-.234.083h-.014a.25.25 0 0 1-.195-.094.406.406 0 0 1-.073-.234l.001-.023v.001c0-.219.095-.329.283-.329l.021-.001c.097 0 .178.067.201.157v.001l.194-.038c-.042-.192-.18-.289-.417-.289h-.013a.492.492 0 0 0-.331.127.48.48 0 0 0-.141.38v-.002.023c0 .132.048.254.127.347l-.001-.001c.087.09.209.146.343.146L4.877 32h-.001.016c.155 0 .296-.06.402-.157v-.388h-.426v.166zm2.471-.622h-.199v.985h.689v-.167h-.49v-.817zm2.089 0h-.199v.985h.199v-.985zm2.043.657-.404-.657h-.193v.985h.185v-.643l.396.643h.198v-.985h-.182v.658zm1.846-.106h.49v-.167h-.49v-.215h.527v-.168h-.727v.985h.747v-.167h-.548v-.266zm4.477-.163h-.388v-.388h-.197v.984h.197v-.431h.388v.431h.198v-.985h-.198v.388zm1.857.163h.492v-.167h-.492v-.215h.529v-.168h-.726v.985h.746v-.167h-.548v-.266zm2.519.001c.171-.027.258-.118.258-.274a.23.23 0 0 0-.096-.219h-.001a.555.555 0 0 0-.25-.059l-.04.001h.002-.417v.984h.198v-.412h.055c.039 0 .076.008.109.023l-.002-.001a.201.201 0 0 1 .07.072l.215.313h.236l-.12-.192a.704.704 0 0 0-.215-.235l-.002-.002zm-.199-.137h-.146v-.247h.156a.515.515 0 0 1 .205.024l-.004-.001a.13.13 0 0 1-.009.2.537.537 0 0 1-.164.025l-.039-.001h.002zm2.099.136h.49v-.167h-.49v-.215h.529v-.168h-.729v.985h.747v-.167h-.548v-.266z"/></symbol><symbol id="client-3" viewBox="0 0 34 32"><path d="M5.643 31.315c.012 0 .024.003.035.008s.021.011.03.018l.166.158c-.13.129-.289.232-.468.302a1.78 1.78 0 0 1-.62.109l-.045-.001h.002a1.742 1.742 0 0 1-.622-.101 1.365 1.365 0 0 1-.47-.286l.001.001a1.294 1.294 0 0 1-.301-.432l-.003-.008a1.442 1.442 0 0 1-.106-.548v-.018.001-.029c0-.388.168-.737.436-.977l.001-.001a1.52 1.52 0 0 1 .498-.287 1.96 1.96 0 0 1 .642-.101h.04c.199 0 .39.034.568.096l-.012-.004c.165.062.316.149.447.255l-.139.169a.143.143 0 0 1-.035.03h-.001a.098.098 0 0 1-.048.013h-.008a.132.132 0 0 1-.062-.018h.001l-.074-.046-.104-.058a1.182 1.182 0 0 0-.321-.1l-.007-.001a1.376 1.376 0 0 0-.23-.018h-.019.001-.015c-.16 0-.313.028-.455.079l.009-.003a1.07 1.07 0 0 0-.363.214l.001-.001a.977.977 0 0 0-.235.339 1.117 1.117 0 0 0-.085.432v.017-.001.019c0 .157.031.307.088.444l-.003-.008a.953.953 0 0 0 .576.548c.136.049.281.073.427.072.085.001.17-.004.254-.014.211-.022.4-.106.55-.234l-.001.001a.133.133 0 0 1 .078-.029zm4.798-.798v.017c0 .197-.041.384-.116.553l.003-.009a1.24 1.24 0 0 1-.311.435l-.001.001c-.138.123-.302.22-.481.283l-.01.003a2.03 2.03 0 0 1-1.278-.004l.014.004a1.471 1.471 0 0 1-.489-.288l.001.001a1.28 1.28 0 0 1-.313-.432l-.003-.008a1.454 1.454 0 0 1 .004-1.134l-.004.01c.071-.165.178-.315.316-.442a1.45 1.45 0 0 1 .488-.277 2.003 2.003 0 0 1 1.278.004l-.014-.004c.184.065.351.162.49.286a1.296 1.296 0 0 1 .426 1zm-.436 0v-.024a1.19 1.19 0 0 0-.082-.436l.003.008a.935.935 0 0 0-.566-.548l-.007-.002a1.455 1.455 0 0 0-.928.003l.01-.003a.997.997 0 0 0-.352.214.914.914 0 0 0-.223.331l-.002.006a1.321 1.321 0 0 0 .003.911l-.003-.009c.101.261.309.46.569.547l.007.002c.296.097.622.097.918 0a.97.97 0 0 0 .35-.211.933.933 0 0 0 .222-.338c.056-.145.082-.298.079-.451zm3.71.473.043.101c.017-.036.031-.069.048-.101.019-.039.037-.072.056-.103l-.002.004 1.061-1.677c.021-.029.04-.047.061-.053s.047-.009.073-.009h.015-.001.314v2.728h-.372v-2.09a.68.68 0 0 1 0-.096v.002l-1.069 1.701a.158.158 0 0 1-.062.061h-.001a.19.19 0 0 1-.09.023h-.064a.183.183 0 0 1-.09-.023h.001a.15.15 0 0 1-.061-.061v-.001l-1.099-1.711v2.189h-.359v-2.722h.328c.026 0 .051.003.075.01h-.002c.026.011.046.03.058.053l1.084 1.678c.02.028.038.06.053.094l.001.004zm3.995-.135v1.021h-.414v-2.723h.926c.175-.003.349.018.517.059.134.034.259.091.366.17.089.07.159.16.205.262l.002.004c.05.111.073.23.071.349v.017a.755.755 0 0 1-.299.603l-.002.001a1.062 1.062 0 0 1-.368.18c-.14.04-.301.064-.468.064h-.035l-.501-.008zm0-.293h.503c.109.002.218-.013.322-.041a.69.69 0 0 0 .234-.119l-.002.001a.522.522 0 0 0 .191-.404v-.007l.001-.029a.453.453 0 0 0-.043-.195l.001.003a.529.529 0 0 0-.144-.185l-.001-.001a.888.888 0 0 0-.562-.146h.003-.503v1.122zm5.584 1.318h-.334a.15.15 0 0 1-.086-.026h.001a.161.161 0 0 1-.054-.062v-.001l-.282-.658H21.12l-.293.658a.156.156 0 0 1-.141.088h-.333l1.246-2.728h.432l1.263 2.728zm-2.057-1.013h1.172l-.494-1.11a1.875 1.875 0 0 1-.094-.256l-.048.142a.876.876 0 0 1-.046.116l-.49 1.108zm3.852-1.701a.173.173 0 0 1 .062.048l1.818 2.056v-2.117h.372v2.728h-.212a.204.204 0 0 1-.082-.017h.001a.221.221 0 0 1-.066-.05l-1.816-2.054.001.047-.002.049v-.002 2.027h-.372v-2.728h.22c.025 0 .051.005.075.013zm5.313 1.629v1.083h-.415v-1.082l-1.149-1.643h.381a.16.16 0 0 1 .081.023h-.001a.234.234 0 0 1 .056.062l.718 1.06a1.159 1.159 0 0 1 .128.241l.053-.117c.021-.043.044-.084.071-.124l.709-1.067a.293.293 0 0 1 .053-.058.137.137 0 0 1 .082-.027h.384l-1.15 1.65zm-16.893-6.219c.181.02.363.036.549.05 2.803-1.09 5.174-2.872 6.818-5.126s2.485-4.878 2.421-7.546l-3.09-2.683c.629 2.84.335 5.775-.848 8.478s-3.208 5.067-5.849 6.827z"/><path d="m12.407 24.451.083.015c2.822-1.755 4.973-4.203 6.176-7.031s1.402-5.904.571-8.83l-4.4-3.822c1.779 3.142 2.496 6.659 2.065 10.141-.43 3.482-1.989 6.786-4.495 9.528zm14.921-9.345c-.747 2.931-2.563 5.574-5.177 7.538a16.213 16.213 0 0 1-2.367 1.49l-.092.043c2.129-.543 4.085-1.504 5.718-2.808s2.901-2.917 3.703-4.714l-1.784-1.549z"/><path d="m26.628 14.674-2.54-2.207c-.049 2.517-.872 4.976-2.385 7.122s-3.66 3.902-6.217 5.084h.012c.57 0 1.139-.03 1.705-.088 2.39-.848 4.502-2.197 6.146-3.926s2.771-3.785 3.278-5.985zM12.774 3.17 9.743.534c-2.709.91-5.039 2.509-6.686 4.588S.526 9.664.518 12.188c.01 2.789 1.09 5.495 3.07 7.69 1.979 2.194 4.744 3.754 7.858 4.43 2.779-2.942 4.407-6.578 4.646-10.379s-.924-7.57-3.319-10.758zM33.63 14.268c-.011-3.308-1.528-6.478-4.221-8.818s-6.342-3.658-10.15-3.668h-.028c-1.831 0-3.59.305-5.231.867l.114-.034L32.67 18.737c.605-1.313.958-2.849.96-4.468v-.001z"/></symbol><symbol id="client-4" viewBox="0 0 65 32"><path d="M10.016 9.983h-.002c-1.827 0-3.308 1.316-3.308 2.94v.002c0 1.624 1.481 2.94 3.308 2.94h.002c1.827 0 3.308-1.317 3.308-2.94v-.002c0-1.624-1.481-2.941-3.308-2.941zm24.418-.939c-.005-2.255-1.016-4.418-2.81-6.012S27.398.539 24.861.534c-2.539.004-4.972.902-6.767 2.497s-2.806 3.757-2.811 6.013v12.437s19.15-1.896 19.152-12.434v-.002zM0 25.562c.005 1.57.709 3.073 1.957 4.183s2.94 1.735 4.706 1.739c1.765-.005 3.457-.63 4.706-1.739s1.952-2.613 1.957-4.181V16.91S.002 18.23.002 25.562zm6.662 1.55c-.345 0-.682-.091-.969-.261a1.617 1.617 0 0 1-.638-.686l-.004-.009a1.394 1.394 0 0 1-.097-.904l-.002.009a1.5 1.5 0 0 1 .477-.794 1.81 1.81 0 0 1 .882-.423l.011-.002a1.939 1.939 0 0 1 1.021.092l-.013-.004c.319.117.592.316.783.571s.294.555.294.861c.001.204-.043.407-.131.596a1.555 1.555 0 0 1-.376.503l-.002.001a1.77 1.77 0 0 1-.567.338 1.907 1.907 0 0 1-.668.119h-.001v-.006zm13.466-.854h-1.286v1.328h-.67v-3.251h2.117v.542h-1.447v.84h1.286v.54zm3.218-.223c0 .32-.056.6-.169.841s-.276.427-.488.558a1.32 1.32 0 0 1-.698.197h-.025.001c-.27 0-.51-.065-.722-.194a1.296 1.296 0 0 1-.487-.546l-.003-.008a1.882 1.882 0 0 1-.177-.804v-.028.001-.16c0-.32.058-.602.172-.844a1.285 1.285 0 0 1 1.212-.757c.271 0 .51.066.721.197.211.13.374.316.489.56.116.242.174.523.174.841v.145zm-.678-.148c0-.341-.061-.6-.183-.777a.596.596 0 0 0-.496-.266l-.028.001h.001l-.025-.001a.597.597 0 0 0-.494.262l-.001.002c-.122.174-.184.43-.185.768v.158c0 .331.061.589.183.772s.297.274.527.274l.026.001a.59.59 0 0 0 .49-.261l.001-.002c.12-.177.181-.434.183-.773v-.158zm2.85.846.001-.019a.34.34 0 0 0-.133-.27l-.001-.001c-.089-.069-.25-.14-.482-.214a3.473 3.473 0 0 1-.57-.232l.019.009c-.37-.2-.554-.469-.554-.806 0-.175.049-.332.147-.469a.975.975 0 0 1 .427-.324c.186-.077.395-.116.625-.116.232 0 .439.042.621.127a.97.97 0 0 1 .421.355.926.926 0 0 1 .152.522h-.67a.434.434 0 0 0-.14-.346c-.094-.084-.226-.125-.395-.125-.164 0-.291.035-.382.105a.325.325 0 0 0-.136.265v.008c0 .106.053.194.158.266.107.071.264.138.471.2.381.114.658.257.833.427s.261.381.261.634c0 .281-.107.503-.32.663s-.498.239-.859.239c-.25 0-.478-.046-.683-.137a1.11 1.11 0 0 1-.469-.373l-.002-.003a.962.962 0 0 1-.16-.533v-.022.001h.671c0 .358.214.538.643.538a.634.634 0 0 0 .373-.096.32.32 0 0 0 .134-.259v-.013.001zm3.574-1.855h-.995v2.708h-.67v-2.708h-.981v-.542h2.647v.542zm2.339 1.3h-1.285v.871h1.509v.538h-2.178v-3.251h2.174v.542h-1.505v.775h1.286v.524zm1.819.218h-.533v1.19h-.67v-3.251h1.208c.384 0 .68.086.888.257s.312.413.312.725a.996.996 0 0 1-.145.556.977.977 0 0 1-.429.35l-.006.002.702 1.328v.03h-.718l-.61-1.189zm-.533-.542h.541c.168 0 .297-.042.39-.126a.46.46 0 0 0 .139-.33l-.001-.026v.001c0-.154-.043-.274-.131-.362s-.219-.132-.4-.132h-.538v.975zm4.058.587v1.145h-.67v-3.251h1.268c.244 0 .459.045.643.134a.98.98 0 0 1 .429.382c.099.164.149.35.149.56 0 .318-.11.57-.328.754-.218.183-.519.275-.904.275h-.587zm0-.542h.598c.178 0 .312-.042.404-.125a.454.454 0 0 0 .141-.357l.001-.024a.534.534 0 0 0-.141-.363.527.527 0 0 0-.389-.152h-.614v1.021zm4.236.279h-1.285v.871h1.509v.538h-2.178v-3.251h2.174v.542h-1.505v.775h1.286v.524zm3.108-1.3h-.996v2.708h-.67v-2.708h-.982v-.542h2.648v.542zm2.339 1.3h-1.285v.871h1.509v.538h-2.179v-3.251h2.174v.542h-1.504v.775h1.285v.524zm1.819.218h-.533v1.19h-.67v-3.251h1.208c.384 0 .68.086.888.257s.312.413.312.725c0 .222-.049.408-.145.556a.982.982 0 0 1-.429.35l-.006.002.703 1.328v.03h-.718l-.61-1.189zm-.533-.542h.54c.168 0 .298-.042.39-.126a.46.46 0 0 0 .139-.331l-.001-.025v.001a.484.484 0 0 0-.132-.362c-.086-.088-.219-.132-.399-.132h-.538v.975zm3.935.88.001-.019a.34.34 0 0 0-.134-.271l-.001-.001c-.089-.069-.25-.14-.482-.214a3.473 3.473 0 0 1-.57-.232l.019.009c-.37-.2-.554-.469-.554-.806 0-.175.05-.332.147-.469a.975.975 0 0 1 .427-.324c.186-.077.395-.116.625-.116.232 0 .439.042.621.127a.97.97 0 0 1 .421.355.926.926 0 0 1 .152.522h-.67a.434.434 0 0 0-.14-.346c-.094-.084-.226-.125-.395-.125-.164 0-.291.035-.382.105a.326.326 0 0 0-.137.265v.007c0 .106.053.194.159.266s.264.138.471.2c.381.114.658.257.833.427s.261.381.261.634c0 .281-.107.503-.32.663s-.499.239-.859.239c-.25 0-.478-.046-.683-.137a1.11 1.11 0 0 1-.469-.373l-.002-.003a.962.962 0 0 1-.16-.533v-.022.001h.671c0 .358.214.538.643.538a.634.634 0 0 0 .373-.096.317.317 0 0 0 .134-.26v-.013.001z"/></symbol><symbol id="client-5" viewBox="0 0 43 32"><path d="M3.239 26.373a.98.98 0 0 1 .25.665.964.964 0 0 1-.092.466l.003-.006a1.057 1.057 0 0 1-.296.378l-.002.002a1.776 1.776 0 0 1-1.13.306h.006H.001V23.97h1.936a1.76 1.76 0 0 1 1.08.283l-.007-.004a.981.981 0 0 1 .289.354.893.893 0 0 1 .086.436.92.92 0 0 1-.225.644c-.15.168-.358.283-.59.33.262.044.499.172.667.361zM.92 25.737h.828a.843.843 0 0 0 .526-.14.516.516 0 0 0 .14-.184l.001-.003a.46.46 0 0 0 .038-.185l-.002-.042v.002l.001-.035a.475.475 0 0 0-.04-.192l.001.003a.51.51 0 0 0-.138-.187l-.001-.001a.845.845 0 0 0-.545-.142h.003-.815v1.106zm1.435 1.616a.527.527 0 0 0 .151-.19l.001-.003a.472.472 0 0 0 .044-.202l-.001-.035v.002l.001-.031a.49.49 0 0 0-.047-.21l.001.003a.534.534 0 0 0-.154-.193l-.001-.001a.898.898 0 0 0-.565-.152h.003H.92v1.16h.88a.94.94 0 0 0 .556-.146zm4.842.832-1.076-1.648h-.405v1.648h-.927V23.97h1.755a1.824 1.824 0 0 1 1.225.362l-.005-.003a1.293 1.293 0 0 1 .42.938c0 .307-.109.589-.291.808l.002-.002a1.461 1.461 0 0 1-.829.427l-.008.001 1.147 1.684H7.197zm-1.482-2.222h.758c.526 0 .79-.212.79-.638l.001-.034a.58.58 0 0 0-.045-.225l.001.004a.628.628 0 0 0-.15-.218.865.865 0 0 0-.6-.171h.003-.767l.009 1.283zm6.547 1.373h-1.846l-.326.849h-.972l1.695-4.168h1.051l1.689 4.168h-.971l-.319-.848zm-.247-.638-.675-1.779-.675 1.779h1.349zm6.587 1.487h-.919l-2.063-2.866v2.866h-.918v-4.216h.918l2.063 2.883v-2.883h.919v4.216zm5.25-1.009c-.191.318-.48.577-.833.744a2.883 2.883 0 0 1-1.219.267l-.079-.001h.004-1.637v-4.215h1.637l.077-.001c.441 0 .859.096 1.235.267l-.019-.008c.352.163.642.419.832.735.189.343.288.722.288 1.106s-.099.763-.288 1.106zm-1.052-.101c.25-.261.404-.616.406-1.006 0-.369-.144-.726-.406-1.006a1.681 1.681 0 0 0-1.157-.358h.005-.639v2.729h.639a1.69 1.69 0 0 0 1.156-.361l-.004.003zM12.838.522s11.873 4.104 11.621 10.043V20.61s-11.864-4.106-11.617-10.045L12.838.522zm22.199 17.737a17.218 17.218 0 0 1 7.544-2.545v-3.146c-3.12 1.102-5.767 3.098-7.544 5.691z"/><path d="M33.69 19.207c1.835-3.384 5.017-5.995 8.891-7.297V2.849S25.672 8.695 26.029 17.153v14.302s.754-.261 1.939-.752c0-.457 0-.918.054-1.382.349-3.926 2.388-7.564 5.667-10.115z"/><path d="M32.082 24.52a13.62 13.62 0 0 1 .592-2.928c-2.043 2.203-3.279 4.936-3.536 7.816-.025.272-.039.543-.045.824a47.103 47.103 0 0 0 3.524-1.703l-.273.133a13.57 13.57 0 0 1-.263-4.142zm.672.051a13.013 13.013 0 0 0 .224 3.835l-.015-.084c4.62-2.531 9.811-6.442 9.61-11.168v-.412c-3.301.338-6.388 1.659-8.79 3.76a12.808 12.808 0 0 0-1.026 4.019l-.004.051z"/></symbol><symbol id="client-6" viewBox="0 0 67 32"><path d="M33.724 15.223a2.084 2.084 0 0 1-.43-1.42v.006-2.051c0-.628.142-1.106.428-1.433.284-.327.774-.489 1.468-.488.652 0 1.116.139 1.389.417.299.355.444.789.411 1.226v.482h-1.166v-.489a2.465 2.465 0 0 0-.034-.477.464.464 0 0 0-.166-.283l-.001-.001a.672.672 0 0 0-.373-.112l-.052.002h.002a.712.712 0 0 0-.447.118l.003-.002a.546.546 0 0 0-.193.309l-.001.004c-.03.14-.047.302-.047.467v.042-.002 2.488c-.019.24.033.48.149.698a.55.55 0 0 0 .23.168l.004.001a.633.633 0 0 0 .305.039H35.2a.63.63 0 0 0 .414-.114l-.002.001a.503.503 0 0 0 .174-.299v-.003c.027-.165.04-.332.036-.498v-.505h1.167v.461a1.866 1.866 0 0 1-.406 1.293l.003-.004c-.268.304-.725.457-1.397.457s-1.179-.163-1.466-.501zm4.859.022c-.295-.32-.442-.784-.442-1.399v-2.157c0-.609.147-1.07.442-1.383s.787-.469 1.478-.467c.686 0 1.176.156 1.471.467.294.313.444.774.444 1.383v2.156c0 .609-.149 1.077-.449 1.398s-.787.481-1.466.481-1.181-.163-1.479-.479zm2.021-.518c.106-.199.154-.419.14-.638v-2.641a1.18 1.18 0 0 0-.14-.632l.003.006a.558.558 0 0 0-.234-.17l-.004-.001a.622.622 0 0 0-.312-.037h.003a.643.643 0 0 0-.313.038l.004-.002a.569.569 0 0 0-.239.171l-.001.001c-.107.195-.154.41-.14.626V14.1c-.014.22.033.439.14.639a.732.732 0 0 0 .246.158.832.832 0 0 0 .605-.002l-.006.002a.723.723 0 0 0 .246-.158v-.013zm2.777-4.825h1.256l.944 3.979.967-3.979h1.222l.124 5.743h-.904l-.097-3.991-.932 3.991h-.725l-.966-4.006-.09 4.006h-.913l.114-5.743zm5.92 0h1.957c1.127 0 1.691.543 1.691 1.631 0 1.041-.594 1.562-1.781 1.56h-.666v2.552h-1.208l.007-5.744zm1.672 2.454a.93.93 0 0 0 .665-.182.928.928 0 0 0 .174-.649l.001-.063c0-.163-.022-.321-.062-.471l.003.013a.43.43 0 0 0-.089-.158.502.502 0 0 0-.149-.114l-.003-.001a1.24 1.24 0 0 0-.476-.094l-.066.002h.003-.469v1.717h.469zm3.719-2.454h1.297l1.331 5.743h-1.126l-.263-1.324h-1.157l-.27 1.324h-1.143l1.331-5.743zm1.108 3.753-.452-2.411-.452 2.411h.903zm2.594-3.753h.846l1.618 3.276V9.902h1.003v5.743h-.804l-1.628-3.42v3.42h-1.036l.002-5.743zm5.815 3.552-1.345-3.545h1.133l.821 2.278.77-2.278h1.109l-1.329 3.546v2.19h-1.159v-2.19zM35.59 18.156v.3h-.986v2.334h-.413v-2.334H33.2v-.3h2.389zm3.089 2.634h-.328a.141.141 0 0 1-.081-.025.137.137 0 0 1-.052-.06v-.001l-.285-.626h-1.367l-.284.626a.168.168 0 0 1-.044.071.144.144 0 0 1-.082.025h-.326l1.208-2.634h.42l1.223 2.624zm-2-.978h1.14l-.484-1.072a1.765 1.765 0 0 1-.086-.235l-.003-.014-.045.14-.044.11-.478 1.07zm4.083.719c.076.004.151.004.228 0a1.41 1.41 0 0 0 .193-.031c.059-.012.117-.028.174-.048.053-.018.107-.042.161-.065v-.592h-.487a.095.095 0 0 1-.061-.022.06.06 0 0 1-.018-.021.048.048 0 0 1-.006-.024V19.523h.937v1.01a1.792 1.792 0 0 1-.496.211l-.013.003c-.1.026-.2.043-.302.055a3.774 3.774 0 0 1-.353.016h-.015c-.212 0-.416-.036-.606-.102l.013.004a1.499 1.499 0 0 1-.486-.277l.002.002a1.276 1.276 0 0 1-.308-.409l-.003-.008a1.3 1.3 0 0 1-.111-.529v-.019.001-.016c0-.193.04-.377.112-.543l-.003.009c.069-.156.176-.299.311-.417.138-.119.302-.211.484-.273.206-.068.427-.101.647-.098.112 0 .225.007.336.023a1.62 1.62 0 0 1 .529.172c.074.041.144.087.211.137l-.116.163a.101.101 0 0 1-.039.035h-.001a.112.112 0 0 1-.055.014.156.156 0 0 1-.075-.021h.001a1.595 1.595 0 0 1-.126-.066l.007.004a1.098 1.098 0 0 0-.154-.069l-.008-.002a1.522 1.522 0 0 0-.213-.057l-.009-.001a1.749 1.749 0 0 0-.29-.023h-.017.001-.015c-.162 0-.317.027-.462.076l.01-.003a1.022 1.022 0 0 0-.356.208.944.944 0 0 0-.222.321l-.002.006a1.234 1.234 0 0 0 .003.887l-.003-.008a.938.938 0 0 0 .242.332c.099.09.219.161.352.208.154.046.316.063.479.052zm3.85-.041h1.319v.3h-1.722v-2.634h.412l-.009 2.334zm2.691.3h-.412v-2.634h.412v2.634zm1.537-2.621a.2.2 0 0 1 .063.047l1.766 1.985-.002-.047.002-.049v.002-1.963h.36v2.645h-.222a.196.196 0 0 1-.077-.016h.001a.23.23 0 0 1-.065-.05l-1.764-1.984v2.048h-.346v-2.634h.215c.023 0 .047.004.068.012zm5.23-.013v.289h-1.463v.87h1.186v.279h-1.186v.9h1.463v.289h-1.889v-2.628h1.889zM10.782 1.889l18.343 4.496v15.757l-18.343-4.494V1.888zM9.605.545v17.868l20.693 5.075V5.622L9.605.546z"/><path d="M20.696 31.781 0 26.702V8.837l20.696 5.077v17.867z"/><path d="m9.948 1.686 18.103 4.44-7.698 6.649L2.246 8.333l7.702-6.647zM9.605.545 0 8.837l20.696 5.077 9.603-8.294L9.606.545zM21.86 30.776l8.439-7.288-8.439-2.069v9.358z"/></symbol><symbol id="clock" viewBox="0 0 32 32"><path d="M31.296 15.301C31.295 6.849 24.441-.002 15.988 0S.685 6.855.687 15.308c.002 6.788 4.422 12.543 10.541 14.545l.108.031a.667.667 0 0 0 .529-.065.636.636 0 0 0 .283-.357l3.865-12.25a1.913 1.913 0 1 0-.852-3.63l.011-.005-5.106-5.107a.638.638 0 0 0-.902.902l5.103 5.109a1.847 1.847 0 0 0-.191.826c0 .602.283 1.137.723 1.48l.004.003-3.682 11.673C3.843 25.782.117 17.709 2.797 10.431S13.551-.573 20.829 2.108c7.278 2.681 11.004 10.754 8.323 18.032-1.345 3.581-4.003 6.406-7.374 7.938l-.088.036-.398-1.874a.639.639 0 0 0-1.05-.343l.001-.001-3.837 3.426a.637.637 0 0 0 .227 1.083l.005.001 4.899 1.563a.637.637 0 0 0 .818-.744l.001.004-.391-1.839c5.528-2.374 9.329-7.772 9.329-14.057v-.034.002zm-15.304-.637a.638.638 0 0 1 0 1.276.638.638 0 0 1 0-1.276zm2.1 14.864 2.184-1.948.603 2.84-2.787-.892z"/><path d="M15.354 3.185V4.46a.638.638 0 0 0 1.276 0V3.185a.638.638 0 1 0-1.276 0zM3.876 14.664a.638.638 0 0 0 0 1.276h1.275a.638.638 0 0 0 0-1.276H3.876zm24.232 1.275a.638.638 0 0 0 0-1.276h-1.275a.638.638 0 0 0 0 1.276h1.275z"/></symbol><symbol id="diagram" viewBox="0 0 32 32"><path d="M14.926 14.965h1.066v4.798h-1.066v-4.798zm4.264 2.132h1.066v2.665H19.19v-2.665zm-8.529 1.599h1.066v1.066h-1.066v-1.066zm-3.198-.533h1.066v1.599H7.463v-1.599z"/><path d="M1.599 28.291h25.586a1.6 1.6 0 0 0 1.599-1.599V24.56a1.6 1.6 0 0 0-1.599-1.599h-.533V9.667l3.028-2.868a1.608 1.608 0 1 0-.742-.752l-.004-.01-2.281 2.162v-1.23a1.6 1.6 0 0 0-1.599-1.599H3.731a1.6 1.6 0 0 0-1.599 1.599v15.992h-.533A1.6 1.6 0 0 0 0 24.56v2.132a1.6 1.6 0 0 0 1.599 1.599zM30.384 4.837a.533.533 0 0 1 0 1.066.533.533 0 0 1 0-1.066zM3.198 6.969c0-.294.239-.533.533-.533h21.323c.294 0 .533.239.533.533v2.239l-1.066 1.013V8.036a.534.534 0 0 0-.534-.534H4.798a.534.534 0 0 0-.534.533v13.327c0 .294.239.533.534.533h19.189a.534.534 0 0 0 .534-.533v-9.675l1.066-1.01V22.96H3.198V6.969zm4.798 6.93h-.005a1.6 1.6 0 1 0 1.112 2.748l1.853.93a.535.535 0 0 0 .636-.122l3.939-4.432 3.872 2.902a.534.534 0 0 0 .686-.039l3.365-3.188v8.131H5.331V8.568h18.123v2.661l-3.771 3.572-3.904-2.927a.534.534 0 0 0-.718.071v.001l-3.993 4.493-1.493-.746c.011-.064.017-.128.02-.193a1.6 1.6 0 0 0-1.599-1.599zm.533 1.599a.533.533 0 0 1-1.066 0 .533.533 0 0 1 1.066 0zm3.198 8.528h5.33v.533a.533.533 0 0 1-.533.533h-4.265a.533.533 0 0 1-.533-.533v-.533zm-10.66.534c0-.294.238-.533.533-.533h9.062v.533a1.6 1.6 0 0 0 1.599 1.599h4.265a1.6 1.6 0 0 0 1.599-1.599v-.533h9.062c.294 0 .533.239.533.533v2.132a.533.533 0 0 1-.533.533H1.601a.533.533 0 0 1-.533-.533V24.56z"/></symbol><symbol id="envelope" viewBox="0 0 43 32"><path d="M38.667 0H4C1.795 0 0 1.795 0 4v24c0 2.205 1.795 4 4 4h34.667c2.205 0 4-1.795 4-4V4c0-2.205-1.795-4-4-4zm0 2.667c.181 0 .355.037.512.104L21.334 18.238 3.489 2.771c.151-.065.327-.104.512-.104h34.667zm0 26.666H4A1.333 1.333 0 0 1 2.667 28V5.587l17.792 15.421c.233.203.539.327.875.327s.642-.124.876-.328l-.002.001L40 5.587V28c0 .736-.597 1.333-1.333 1.333z"/></symbol><symbol id="facebook" viewBox="0 0 32 32"><path d="M21.328 5.312h2.923V.224A36.478 36.478 0 0 0 20.144 0h-.157.008c-4.213 0-7.099 2.65-7.099 7.52V12H8.25v5.688h4.646V32h5.699V17.69h4.459l.709-5.688h-5.17V8.08c0-1.643.443-2.768 2.734-2.768z"/></symbol><symbol id="instagram" viewBox="0 0 32 32"><path d="M31.968 9.408c-.074-1.701-.349-2.869-.742-3.882a7.839 7.839 0 0 0-1.85-2.837l-.001-.001A7.906 7.906 0 0 0 26.597.861l-.054-.018C25.524.449 24.362.176 22.661.101 20.949.019 20.405 0 16.059 0c-4.344 0-4.888.019-6.595.094-1.699.074-2.869.349-3.88.742a7.847 7.847 0 0 0-2.839 1.85l-.001.001A7.9 7.9 0 0 0 .919 5.465l-.018.054C.506 6.538.232 7.7.157 9.401c-.082 1.712-.101 2.256-.101 6.602 0 4.344.019 4.888.094 6.595.075 1.701.35 2.869.744 3.882a7.915 7.915 0 0 0 1.849 2.837l.001.001c.8.813 1.77 1.443 2.832 1.843 1.019.395 2.182.67 3.882.744 1.707.075 2.251.094 6.595.094 4.346 0 4.89-.019 6.595-.094 1.701-.074 2.869-.349 3.882-.742a8.237 8.237 0 0 0 4.664-4.628l.019-.055c.394-1.019.669-2.182.744-3.882.075-1.707.093-2.251.093-6.595s-.006-4.888-.08-6.595zm-2.88 13.066c-.07 1.563-.333 2.406-.55 2.97a5.341 5.341 0 0 1-3.004 3.024l-.036.012c-.56.219-1.411.482-2.968.55-1.688.075-2.194.094-6.464.094-4.269 0-4.782-.019-6.464-.094-1.563-.069-2.406-.331-2.97-.55a4.953 4.953 0 0 1-1.836-1.192l-.001-.001a4.978 4.978 0 0 1-1.184-1.803L3.6 25.45c-.218-.563-.48-1.413-.549-2.97-.075-1.688-.094-2.195-.094-6.464 0-4.27.019-4.784.094-6.464.069-1.563.331-2.406.549-2.97a4.897 4.897 0 0 1 1.198-1.837l.002-.002a4.972 4.972 0 0 1 1.806-1.182l.034-.011c.56-.219 1.411-.48 2.968-.55 1.688-.074 2.195-.093 6.464-.093 4.275 0 4.782.019 6.464.093 1.563.069 2.406.331 2.97.55a4.91 4.91 0 0 1 1.837 1.194c.531.52.938 1.144 1.195 1.84.218.56.48 1.411.549 2.968.075 1.688.094 2.194.094 6.464 0 4.269-.019 4.768-.094 6.458z"/><path d="M16.059 7.782a8.223 8.223 0 0 0-8.219 8.221 8.223 8.223 0 0 0 16.442.008v-.009a8.223 8.223 0 0 0-8.221-8.221zm0 13.552a5.333 5.333 0 0 1 .001-10.666h.001a5.334 5.334 0 1 1 0 10.668zM26.525 7.458a1.92 1.92 0 0 1-3.84 0 1.92 1.92 0 0 1 3.84 0z"/></symbol><symbol id="linkedin" viewBox="0 0 32 32"><path d="M31.992 32H32V20.262c0-5.741-1.235-10.163-7.947-10.163-3.227 0-5.392 1.77-6.277 3.45h-.093v-2.914h-6.365v21.363h6.627V21.42c0-2.786.528-5.48 3.978-5.48 3.398 0 3.45 3.179 3.45 5.658V32h6.619zM.528 10.635h6.635V32H.528V10.635zM3.843 0A3.843 3.843 0 0 0 0 3.843c0 2.12 1.722 3.878 3.843 3.878 2.12 0 3.842-1.757 3.842-3.878S5.965.002 3.844 0z"/></symbol><symbol id="smartphone" viewBox="0 0 20 32"><path d="M17 0H3C1.346 0 0 1.346 0 3v26c0 1.654 1.346 3 3 3h14c1.654 0 3-1.346 3-3V3c0-1.654-1.346-3-3-3zM3 2h14a1 1 0 0 1 1 1v21H2V3a1 1 0 0 1 1-1zm14 28H3a1 1 0 0 1-1-1v-3h16v3a1 1 0 0 1-1 1z"/><path d="M4.708 27.478a.889.889 0 0 1 .001 1.319l-.001.001a1.048 1.048 0 0 1-1.417 0l.001.001a.889.889 0 0 1-.001-1.319l.001-.001a1.048 1.048 0 0 1 1.417 0l-.001-.001z"/></symbol><symbol id="station" viewBox="0 0 32 32"><path d="m30.773 22.098-8.443-8.505.937-4.616c.225.09.485.144.758.146h.033a2.16 2.16 0 1 0-2.029-1.42l-.005-.015-4.96.606L8.973.161a.53.53 0 0 0-.376-.16.536.536 0 0 0-.373.155L6.712 1.66a.535.535 0 0 0 0 .754l.814.825C6.383 5.301 5.71 7.761 5.71 10.378c0 4.106 1.656 7.824 4.336 10.525l-.001-.001a.49.49 0 0 0 .146.097 2.986 2.986 0 0 0-.052.546v6.188h-6.4a2.669 2.669 0 0 0-2.667 2.666v1.067c0 .295.239.534.534.534H26.14a.534.534 0 0 0 .533-.534v-1.067a2.67 2.67 0 0 0-2.666-2.666h-6.4v-2.742a14.784 14.784 0 0 0 10.166-1.502l-.077.039.818.823a.534.534 0 0 0 .376.16.536.536 0 0 0 .373-.155l1.512-1.504a.535.535 0 0 0 0-.754zM23.28 6.233a1.067 1.067 0 1 1 .752 1.822h-.004a1.066 1.066 0 0 1-.747-1.822h-.002zm-1.256 3.504-.598 2.946-1.175-1.183 1.774-1.763zm-.605-.902-1.92 1.909-1.486-1.493 3.406-.416zM24.004 28.8a1.6 1.6 0 0 1 1.6 1.6v.534H2.138V30.4a1.6 1.6 0 0 1 1.6-1.6h20.267zm-7.466-2.134v1.067h-5.334v-1.067h5.334zM11.204 25.6v-4.053c0-1.294 1.196-2.346 2.667-2.346s2.667 1.053 2.667 2.346V25.6h-5.334zm6.4-1.696v-2.357c0-1.882-1.675-3.413-3.733-3.413h-.058c-1.353 0-2.54.707-3.213 1.771l-.009.016a13.817 13.817 0 0 1-3.812-9.55c0-2.314.567-4.496 1.569-6.414l-.036.077 18.602 18.709c-1.823.947-3.979 1.502-6.266 1.502-1.079 0-2.128-.124-3.136-.357l.093.018zm11.289-.684L7.836 2.039l.754-.752 7.935 7.98c.004 0 .006.007.01.01l13.114 13.191-.757.752z"/><path d="M13.876 20.267h-.007a1.6 1.6 0 0 0-.003 3.2h.007a1.6 1.6 0 0 0 .002-3.2zm.373 1.978a.534.534 0 1 1-.378-.912.533.533 0 0 1 .374.911h.005z"/></symbol><symbol id="twitter" viewBox="0 0 32 32"><path d="M32 6.078c-1.1.493-2.376.857-3.713 1.028l-.068.007a6.556 6.556 0 0 0 2.873-3.579l.013-.046a12.88 12.88 0 0 1-4.076 1.573l-.084.014A6.558 6.558 0 0 0 15.6 9.557v.004c0 .52.043 1.021.152 1.496-5.454-.266-10.28-2.88-13.522-6.861a6.524 6.524 0 0 0-.902 3.313v.001a6.57 6.57 0 0 0 2.914 5.451 6.453 6.453 0 0 1-2.994-.823l.033.017v.072a6.592 6.592 0 0 0 5.213 6.44l.043.008a6.403 6.403 0 0 1-1.662.215h-.061.003c-.419 0-.843-.024-1.242-.112.85 2.598 3.261 4.509 6.13 4.57a13.093 13.093 0 0 1-8.122 2.8H1.57h.001-.062c-.531 0-1.055-.034-1.569-.099l.061.006c2.826 1.846 6.287 2.944 10.004 2.944h.063-.003c12.072 0 18.672-10 18.672-18.669 0-.288-.01-.57-.024-.848a13.203 13.203 0 0 0 3.258-3.355l.03-.047z"/></symbol><symbol id="check1" viewBox="0 0 16 15"><path d="M3.95703 7.75166L3.88825 7.68604L3.81923 7.75141L2.93123 8.59258L2.85486 8.66492L2.93097 8.73753L6.42671 12.0724L6.49574 12.1382L6.56476 12.0724L14.069 4.91352L14.1449 4.84116L14.069 4.76881L13.1873 3.92764L13.1183 3.86183L13.0493 3.92761L6.49577 10.1735L3.95703 7.75166Z" fill="white" stroke="white" stroke-width="0.2"/></symbol><svg width="19" height="19" fill="none" xmlns="http://www.w3.org/2000/svg"><path d="M18.667 1.88 16.787 0 9.333 7.453 1.88 0 0 1.88l7.453 7.453L0 16.787l1.88 1.88 7.453-7.454 7.454 7.454 1.88-1.88-7.454-7.454 7.454-7.453Z" fill="#212121"/></svg><symbol id="selector_40px" viewBox="0 0 32 32"><path d="M6.4 11.733V9.6h19.2v2.133H6.4zm0 5.334h19.2v-2.133H6.4v2.133zm0 5.333h19.2v-2.133H6.4V22.4z"/></symbol><symbol id="close_40px" viewBox="0 0 32 32"><path d="M23.733 10.304 22.229 8.8l-5.963 5.963L10.303 8.8l-1.504 1.504 5.963 5.963-5.963 5.963 1.504 1.504 5.963-5.963 5.963 5.963 1.504-1.504-5.963-5.963 5.963-5.963z"/></symbol><svg id="ic4" xmlns="http://www.w3.org/2000/svg" data-name="Layer 1" viewBox="0 0 512 512"><circle cx="251.15" cy="76.64" r="69.14" fill="#26a6fe"/><path fill="#0593fc" d="M266.12 9.14a69.13 69.13 0 0 1-45 121.64 69.71 69.71 0 0 1-15-1.64 69.13 69.13 0 1 0 59.94-120Z"/><circle cx="208.05" cy="142.54" r="69.14" fill="#fed402"/><path fill="#fac600" d="M223 75.05a69.13 69.13 0 0 1-59.93 120 69.13 69.13 0 1 0 59.93-120Z"/><circle cx="303.95" cy="142.54" r="69.14" fill="#fd4755"/><path fill="#fb2b3a" d="M318.92 75.05A69.13 69.13 0 0 1 259 195a69.13 69.13 0 1 0 59.93-120Z"/><path fill="#fae2c0" d="M357.77 202.7 325.2 305.21l-9.87 31.08-51.66 162.6a8 8 0 0 1-15.34 0L225 425.43l-4.82-15.19-16.6-52.24-5.11-16.1-16.59-52.2-5.11-16.1-22.54-70.9a7.52 7.52 0 0 1 7.17-9.8h189.2a7.52 7.52 0 0 1 7.17 9.8Z"/><path fill="#fddeb0" d="M350.6 192.9h-24.48l-87.5 275.42 9.71 30.57a8 8 0 0 0 15.34 0l94.1-296.19a7.52 7.52 0 0 0-7.17-9.8Z"/><path fill="#fb2b3a" d="M335.29 143.1a7.51 7.51 0 0 1-6.94-10.34l6.28-15.42a7.5 7.5 0 0 1 13.89 5.66l-6.28 15.42a7.51 7.51 0 0 1-6.95 4.68Z"/><path fill="#fac600" d="M206.43 160.79a7.47 7.47 0 0 1-5.3-2.19l-11.78-11.78a7.5 7.5 0 1 1 10.65-10.6L211.74 148a7.5 7.5 0 0 1-5.31 12.8Z"/><path fill="#fb2b3a" d="M277.79 131.3a7.51 7.51 0 0 1-7-4.67l-6.28-15.42a7.5 7.5 0 1 1 13.89-5.66l6.33 15.45a7.5 7.5 0 0 1-4.11 9.78 7.65 7.65 0 0 1-2.83.52Z"/><path fill="#0593fc" d="M271.55 61a7.5 7.5 0 0 1-6.95-4.68l-6.29-15.42a7.5 7.5 0 0 1 13.89-5.7l6.29 15.42a7.5 7.5 0 0 1-4.12 9.78 7.39 7.39 0 0 1-2.82.6zm-43.02.91a7.4 7.4 0 0 1-2.83-.56 7.5 7.5 0 0 1-4.12-9.77l6.29-15.43a7.5 7.5 0 0 1 13.89 5.66l-6.29 15.43a7.49 7.49 0 0 1-6.94 4.67z"/><path fill="#fac600" d="M214.34 123.59a7.5 7.5 0 0 1-7-4.67l-6.24-15.42a7.5 7.5 0 1 1 13.9-5.66l6.29 15.42a7.5 7.5 0 0 1-4.12 9.77 7.39 7.39 0 0 1-2.83.56Z"/><path fill="#fb2b3a" d="M302.37 158a7.21 7.21 0 0 1-2.32-.37 7.5 7.5 0 0 1-4.82-9.45l5.16-15.84a7.5 7.5 0 0 1 14.26 4.64l-5.15 15.84a7.5 7.5 0 0 1-7.13 5.18Z"/><path fill="#fac600" d="M169.37 141.5a7.5 7.5 0 0 1-7.13-9.82l5.15-15.84a7.5 7.5 0 1 1 14.26 4.64l-5.15 15.84a7.5 7.5 0 0 1-7.13 5.18Z"/><path fill="#fdd79b" d="m249.29 222.33-67.41 67.41-5.11-16.1 61.92-61.92a7.5 7.5 0 1 1 10.6 10.61zm90 0L203.58 358l-5.11-16.1 130.22-130.18a7.5 7.5 0 0 1 10.6 10.61z"/><path fill="#fbc56d" d="m306.28 255.34 33-33a7.5 7.5 0 0 0-10.6-10.61l-12.53 12.53Z"/><path fill="#fdd79b" d="m325.2 305.21-9.87 31.08-87.33 87.3a7.35 7.35 0 0 1-3 1.84l-4.82-15.19Z"/><path fill="#fccd7f" d="m315.33 336.29 4.25-13.39 5.62-17.69-50.95 50.95-9.88 31.09 50.96-50.96z"/><rect width="240.73" height="38.3" x="135.64" y="178.72" fill="#ecbba3" rx="19.15"/><path fill="#e8ad8c" d="M357.21 178.72H345.9A19.13 19.13 0 0 1 327.21 202H136.1a19.15 19.15 0 0 0 18.69 15h202.42a19.15 19.15 0 1 0 0-38.3Z"/></svg><svg id="ic5" xmlns="http://www.w3.org/2000/svg" viewBox="0 0 50 50"><path fill="#bc6b34" d="m32.8881 21.0714-5.16 25.705c-.1341.6474-.4872 1.2033-.9679 1.599A2.7973 2.7973 0 0 1 24.9976 49c-1.3211 0-2.459-.9287-2.7271-2.2236l-5.1632-25.705c3.7833 2.0732 11.9974 2.0764 15.7808 0z"/><path fill="#fffefd" d="M31.7605 9.1749c1.0316-2.0564-1.2095-3.315-1.2095-3.315.498-1.4585-1.7431-2.3122-1.7431-2.3122-1.0672-.5335-1.992-1.4623-1.992-1.4623-3.3794-2.6719-4.4466.4308-4.4466.4308s1.0169-.8474 1.5526-.1653c.3298.4199.1887 1.0368-.2613 1.3241-1.4198.9065-3.0077.3448-4.0604 2.1733-.3168.5503-.5036 1.2656-.2901 2.146 0 0-2.0988 1.245-1.0316 3.664 0 0-3.1304 3.2726.3203 5.6916h13.3396c2.0276-1.6364.569-4.1264.569-4.1264 1.4942-2.4547-.7469-4.0486-.7469-4.0486z"/><path fill="#DADBD8" d="M21.4576 5.2159c-1.2653.638-.8327 1.6113-.1047 1.9135 1.2776.5304 9.6986-1.352 6.7476-3.0831-.3463-.2032-.7476-.2695-1.1107-.4331-.2588-.1166-.5968-.5244-.8918-.4721-.3014.0534-.6846.4792-.9641.6322-1.1666.6389-2.4932.8461-3.6763 1.4426z"/><path fill="#C7C7C7" d="M24.1073 8.8026c1.8805.5162 4.7384.7756 6.6305.2097l-3.6149-.2059c-.6179-.0409-1.2353-.0867-1.856-.1237 1.7401-.2624 3.5923-.981 4.5426-2.4619-2.2654 2.118-6.1436 2.2886-9.2712 2.2793 1.1193.283 2.4054.3668 3.569.3025zm1.1837 4.3767c-1.9094-.2111-4.2857-.6523-6.123-1.08 1.875.8155 4.0178 1.321 6.0694 1.5672 2.1154.2121 4.198.1731 6.2326-.5555-1.0343.168-3.6385.3437-6.179.0683z"/><path fill="#DADBD8" d="M19.7675 15.9392c1.1883.614 5.4572-.06 6.7957-.2552 2.6895-.3922 3.0893-.4319 3.5798-.5948-8.1401-.2506-8.5592-.1855-9.5964-.5702-.2894-.1073-.5783-.251-.8868-.2422-1.1146.0321-.4725 1.3627.1077 1.6624z"/><path fill="#F5B948" d="M34.0586 19.6196c0 3.9469-18.1187 3.9433-18.1187-.0033.0675-.2613-.4056-2.2661 1.308-2.2661h15.5028c1.708 0 1.2462 2.0301 1.3079 2.2694z"/><path fill="#f8c299" d="m32.668 22.1532-.1899.94-1.04-1.23v-.01l-.11-.12c.1-.03.2001-.06.2899-.1h.01c.16-.05.3-.11.4501-.17l.34.39.2499.3zm-.88 4.39-.09.44-.1001.5-.1599-.19-1.8201-2.14-.49-.58-1.76-2.06c.3-.03.6001-.06.9001-.1l1.3499 1.58.49.58 1.6801 1.97zm-.88 4.39-.1899.94-1.1001-1.3-.49-.57-1.8199-2.14-.49-.58-1.8199-2.13-.49-.58-1.74-2.05c.3398.03.6899.06 1.0499.08l1.1801 1.39.49.58 1.8199 2.13.49.58 1.8199 2.14.49.58.8.93zm-.8799 4.4-.05.25-.14.69-.2201-.27-.49-.57-1.8199-2.14-.49-.58-1.8199-2.13-.49-.58-1.8201-2.14-.49-.58-1.8201-2.13-.49-.58a80658.234 80658.234 0 0 0-2.72-3.2l-.0601-.3c.4411.2471.9518.4605 1.27.56l2 2.36.49.58 1.8201 2.13.49.58 1.8201 2.14.49.58 1.8199 2.14.49.57 1.8199 2.14.4102.48zM29.148 39.723l-.19.93-1.65-1.93-.49-.58-1.82-2.14-.49-.57-1.82-2.14-.49-.58-1.82-2.14-.49-.57-1.29-1.52-.2-1-.1-.5.26.31 1.82 2.13.49.58 1.82 2.14.49.57 1.82 2.14.49.58 1.82 2.13.49.58zM28.258 44.113l-.18.93-.77-.89-.49-.59-1.82-2.13-.49-.58-1.82-2.13-.49-.58-1.82-2.14-.36-.42-.05-.25-.25-1.26.66.78.49.58 1.82 2.13.49.58 1.82 2.14.49.57 1.82 2.14.49.58z"/><path fill="#F5B948" d="M27.038 48.1133c-.09.09-.1801.18-.2799.2599-.0901.08-.1901.15-.3.21l-1.46-1.71-.5-.59-1.8101-2.13-.49-.58-.75-.88-.3-1.51 1.54 1.81.49.58 1.8201 2.13.49.59 1.5499 1.8201zm-8.37-26.3801-.6.7-.5599.65-.1801-.93.59-.69c.2184.0874.5289.2036.75.27zm3.96.78-1.76 2.06-.49.58-1.8199 2.14-.16.19-.1-.5-.09-.44 1.6799-1.97.49-.58 1.3401-1.58c.2512.0289.2401.0331.9099.1zm4.6001.01-1.74 2.05-.49.58-1.8201 2.13-.49.58-1.8201 2.14-.49.57-1.0999 1.3-.1901-.94.7999-.93.49-.58 1.8201-2.14.49-.58 1.8201-2.13.49-.58 1.1799-1.39c.3601-.02.7101-.0499 1.0502-.08zm5.6599-1.45-.0599.3-2.7201 3.2-.49.58-1.8199 2.13-.49.58-1.8199 2.14-.49.58-1.8201 2.13-.49.58-1.8201 2.14-.49.57-.22.27-.1399-.69-.05-.25.4099-.48 1.8201-2.14.49-.57 1.8201-2.14.49-.58 1.8199-2.14.49-.58 1.8199-2.13.49-.58 1.8201-2.1299v-.01l.1799-.22h.01c.16-.05.3-.11.4501-.17a7.6459 7.6459 0 0 0 .8099-.3901zM31.698 26.983l-.1.5-.2 1-1.29 1.52-.49.57-1.82 2.14-.49.58-1.82 2.14-.49.57-1.82 2.14-.49.58-1.65 1.93-.19-.93 1.35-1.58.49-.58 1.82-2.13.49-.58 1.82-2.14.49-.57 1.82-2.14.49-.58 1.82-2.13z"/><path fill="#F5B948" d="m30.278 34.073-.25 1.26-.05.25-.36.42-1.82 2.14-.49.58-1.82 2.13-.49.58-1.82 2.14-.49.58-.77.89-.18-.93.46-.54.49-.58 1.82-2.14.49-.57 1.82-2.14.49-.58 1.82-2.13.49-.58zM28.858 41.1733l-.3099 1.52-.75.88-.49.58-1.8199 2.14-.49.58-1.4601 1.71c-.22-.13-.42-.29-.59-.48l1.55-1.82.5-.58 1.8199-2.14.49-.57 1.55-1.82z"/></svg><svg id="ic6" xmlns="http://www.w3.org/2000/svg" viewBox="0 0 64 64"><path fill="#d41443" d="M53.7 34.8c-.2-.2-.5-.4-.8-.4h-1.1c1-1.6 1.4-3.2 1.2-4.6-.2-1.5-1.1-2.8-2.7-3.9 1-3.3.9-6-.2-8-1-1.7-2.7-3-5-3.7C45.7 6.7 38.9.9 38 .3l-.1-.1h-.1c-.1 0-.1-.1-.2-.1H37c-.1 0-.1 0-.2.1 0 0-.1 0-.1.1-.1 0-.1.1-.2.2 0 0 0 .1-.1.1 0 .1-.1.1-.1.2V1.1c0 5.1-3.2 6.1-6.9 7.3-3.1 1-6.6 2.1-7.1 6.3-2.1 0-3.7.6-4.9 1.8-2.1 2.2-2.2 5.8-1.8 8.8-2.8.6-4 2.5-4.4 3.6-.2.5-.3 1.2-.3 1.9 0 .8.2 2.2 1.1 3.7h-1c-.3 0-.6.1-.8.4-.2.2-.3.5-.2.8L15.2 60c.5 2.3 2.6 4 5 4h23.7c2.4 0 4.5-1.7 5-4L54 35.6c0-.3-.1-.6-.3-.8zM13 29.6c.4-1.1 1.5-2.4 3.8-2.6 2.1-.2 4.7.5 7.8 2.1.5.2 1.1 0 1.3-.4.2-.5 0-1.1-.4-1.3-3-1.5-5.7-2.3-7.9-2.3-.3-2.3-.3-5.5 1.3-7.3.9-1 2.4-1.4 4.3-1.2 1.6.2 3.6.7 5.8 1.7.5.2 1.1 0 1.3-.5.2-.5 0-1.1-.5-1.3-2.1-.9-3.9-1.5-5.5-1.7.3-2.8 2.4-3.6 5.8-4.7 3.2-1 7.2-2.3 8-7.1 2 2 5.3 6 5 10.8-2-.3-3.7-.2-3.8-.2-.4 0-.7.3-.8.6 0 .1-.1.3-.1.4 0 .4.3.7.7.8h2.5c.7 0 1.4.1 2.2.3 2.2.5 3.7 1.5 4.5 2.9.8 1.5.9 3.5.2 6.1-.3-.1-.6-.3-.9-.4-.4-.2-.7-.3-1.1-.4-2.6-.9-5-1.2-5.1-1.2-.4 0-.8.2-1 .5v.1c0 .1-.1.2-.1.2-.1.5.3 1 .8 1.1h.1s2.6.3 5.1 1.3c.2.1.4.2.6.2l.6.3c.4.2.7.4 1.1.6 1.4.9 2.2 1.9 2.4 3 .2 1.2-.4 2.7-1.6 4.3h-35c-1.4-1.5-1.6-3-1.6-3.7.1-.5.2-.8.2-1zm33.9 30c-.3 1.5-1.6 2.5-3.1 2.5H20.2c-1.5 0-2.8-1-3.1-2.5l-4.9-23.2h39.5l-4.8 23.2z"/><path fill="#f16d60" d="m12.3 36.3 4.9 23.2c.3 1.5 1.6 2.5 3.1 2.5H44c1.5 0 2.8-1 3.1-2.5L52 36.3H12.3zM23 59.8h-.2c-.5 0-.9-.3-.9-.8l-3.5-19.4c-.1-.5.3-1 .8-1.1.5-.1 1 .3 1.1.8l3.5 19.4c.1.5-.3 1.1-.8 1.1zm6 0c0 .1 0 .1 0 0-.6 0-1-.4-1-.9l-1.2-19.4c0-.5.4-1 .9-1s1 .4 1 .9l1.1 19.4c.2.6-.2 1-.8 1zm7-.9c0 .5-.4.9-1 .9h-.1c-.5 0-.9-.5-.9-1l1.1-19.4c0-.5.5-.9 1-.9s1 .5.9 1l-1 19.4zm6.1.2c-.1.5-.5.8-1 .8h-.2c-.5-.1-.9-.6-.8-1.1l3.5-19.4c.1-.5.6-.9 1.1-.8.5.1.9.6.8 1.1l-3.4 19.4z"/><path fill="#e25e5a" d="m51.8 36.3-4.9 23.2c-.3 1.5-1.6 2.5-3.1 2.5H20.2c-1.5 0-2.8-1-3.1-2.5l-4.9-23.2h2.6L19 57.6c.3 1.3 1.4 2.3 2.7 2.3h20.6c1.3 0 2.4-1 2.7-2.3l4.2-21.2h2.6z"/><path fill="#ffdb7c" d="M49.5 34.4h-35c-1.4-1.5-1.6-3-1.6-3.7 0-.6.1-.9.2-1.1.4-1.1 1.5-2.4 3.8-2.6 2.1-.2 4.7.5 7.8 2.1.5.2 1.1 0 1.3-.4.2-.5 0-1.1-.4-1.3-3-1.5-5.7-2.3-7.9-2.3-.3-2.3-.3-5.5 1.3-7.3.9-1 2.4-1.4 4.3-1.2 1.6.2 3.6.7 5.8 1.7.5.2 1.1 0 1.3-.5.2-.5 0-1.1-.5-1.3-2.1-.9-3.9-1.5-5.5-1.7.3-2.8 2.4-3.6 5.8-4.7 3.2-1 7.2-2.3 8-7.1 2 2 5.3 6 5 10.8-2-.3-3.7-.2-3.8-.2-.5.1-.9.5-.9 1.1 0 .5.5.9 1 .9 0 0 2.1-.2 4.3.3 2.2.5 3.7 1.5 4.5 2.9.8 1.5.9 3.5.2 6.1-3.1-1.6-6.9-2.1-7-2.1-.5-.1-1 .3-1.1.8-.1.5.3 1 .9 1.1 0 0 4.4.6 7.3 2.4 1.4.9 2.2 1.9 2.4 3 .3 1.3-.2 2.7-1.5 4.3z"/><path fill="#ecc25e" d="M48.6 24.9c-.3-.1-.6-.3-.9-.4-.4-.2-.7-.3-1.1-.4 0-1.3-.1-2.4-.6-3.3-.7-1.4-1.3-2.1-3.5-3.8-.9-.7-1.4-1-2.3-1.4h1.5c.7 0 1.4.1 2.2.3 2.2.5 3.7 1.5 4.5 2.9.9 1.5.9 3.6.2 6.1zm-5.4-11.1c-.6-.1-1.1-.2-1.6-.2-.5-3.7-2.6-6.8-4-8.5.2-.6.4-1.3.6-2.1 1.9 2 5.2 6.1 5 10.8zm-5.9-8.3c-.9 4.3-4.1 5.6-6.7 6.6-2.2.8-3.8 1.5-4.5 3.1-.6-.2-1.2-.3-1.7-.4.3-2.8 2.4-3.6 5.8-4.7 2.5-.8 5.6-1.8 7.1-4.6zM28.5 18c-.8-.2-2.5.1-3.8.1-1.6.1-2.9.5-3.6 1.5-1.1 1.3-1.3 3.6-1.2 5.6-.8-.2-1.5-.3-2.3-.3-.3-2.3-.3-5.5 1.3-7.3.9-1 2.4-1.4 4.3-1.2 1.5.3 3.3.8 5.3 1.6zm-5.1 10.4c-1.1 0-2.4.2-4 .5-2 .3-2.9 1.6-3.3 2.6-.1.2-.2.5-.2 1.1 0 .4.1 1.1.3 1.8h-1.8c-1.4-1.5-1.6-3-1.6-3.7 0-.6.1-.9.2-1.1.4-1.1 1.5-2.4 3.8-2.6 1.8-.2 4 .3 6.6 1.4zm26.1 6H48c.3-.8.4-1.6.3-2.3-.1-1.1-.8-2.7-1.9-3.7-1.7-1.6-3.7-2.8-5.2-3.6h.1s2.6.3 5.1 1.3c.2.1.4.2.6.2l.6.3c.4.2.7.4 1.1.6 1.4.9 2.2 1.9 2.4 3 .2 1.2-.3 2.6-1.6 4.2z"/><path fill="#d41443" d="M23.8 58.7c.1.5-.3 1-.8 1.1h-.2c-.5 0-.9-.3-.9-.8l-3.5-19.4c-.1-.5.3-1 .8-1.1.5-.1 1 .3 1.1.8l3.5 19.4zm21.8-19-3.5 19.4c-.1.5-.5.8-1 .8h-.2c-.5-.1-.9-.6-.8-1.1l3.5-19.4c.1-.5.6-.9 1.1-.8.6.1 1 .6.9 1.1zM29.9 58.8c0 .5-.4 1-.9 1h-.1c-.5 0-.9-.4-1-.9l-1.2-19.4c0-.5.4-1 .9-1s1 .4 1 .9l1.3 19.4zm7.2-19.2L36 58.9c0 .5-.4.9-1 .9h-.1c-.5 0-.9-.5-.9-1l1.1-19.4c0-.5.5-.9 1-.9.7.1 1.1.5 1 1.1z"/></svg><svg id="ic7" xmlns="http://www.w3.org/2000/svg" enable-background="new 0 0 512 512" viewBox="0 0 512 512"><path fill="#fcccab" d="M233.753,365.313v123.361c0,12.881,10.443,23.323,23.284,23.323c12.88,0,23.323-10.443,23.323-23.323V365.313H233.753z"/><path fill="#fbb381" d="M280.361,365.311v123.362c0,12.881-10.443,23.323-23.323,23.323c-3.373,0-6.542-0.69-9.427-2.032c8.167-3.616,13.856-11.783,13.856-21.292V365.311H280.361z"/><path fill="#fee8b3" d="M359.901,103.915v245.818c0,16.148-13.054,29.243-29.244,29.243H181.386c-16.19,0-29.286-13.095-29.286-29.243V106.289c0-57.005,44.882-105.151,101.845-106.253c29.456-0.551,56.242,11.189,75.525,30.43C348.246,49.242,359.901,75.264,359.901,103.915z"/><path fill="#333" d="M255.956,4.081c-0.647,0-1.29,0.008-1.936,0.02c-53.958,1.04-97.857,46.883-97.857,102.186v243.447c0,13.884,11.317,25.178,25.225,25.178h149.268c13.884,0,25.182-11.293,25.182-25.178v-245.82c0-26.654-10.384-51.72-29.241-70.577C307.649,14.43,282.626,4.081,255.956,4.081z"/><path fill="#965353" d="M359.901,103.915v245.818c0,16.148-13.054,29.243-29.244,29.243H181.386c-16.19,0-29.286-13.095-29.286-29.243V106.289c0-57.005,44.882-105.151,101.845-106.253c29.456-0.551,56.242,11.189,75.525,30.43C348.246,49.242,359.901,75.264,359.901,103.915z"/><path fill="#965353" d="M359.901,103.917v245.832c0,16.131-13.043,29.215-29.256,29.215H300.13c16.172,0,29.256-13.084,29.256-29.215V103.917c0-28.647-11.661-54.692-30.434-73.465c-15.4-15.359-35.554-25.883-58.023-29.296c4.266-0.69,8.614-1.057,13.043-1.138c29.418-0.528,56.236,11.215,75.496,30.434C348.24,49.224,359.901,75.27,359.901,103.917z"/><path fill="#834646" d="M359.921,103.935v125.047c0,7.098-4.818,13.541-11.777,14.939c-9.551,1.919-17.892-5.343-17.892-14.544V176.08c0-4.117-1.654-7.812-4.348-10.467c-2.563-2.563-6.067-4.186-9.913-4.337c-8.489-0.335-15.447,7.176-15.447,15.671v98.174c0,7.098-4.818,13.542-11.777,14.94c-9.551,1.919-17.892-5.344-17.892-14.545v-71.268c0-4.118-1.654-7.812-4.348-10.505c-2.92-2.919-7.013-4.618-11.547-4.314c-7.91,0.531-13.813,7.605-13.813,15.533v51.798c0,7.076-4.797,13.505-11.733,14.904c-9.542,1.926-17.936-5.343-17.936-14.503v-66.996c0-4.118-1.655-7.812-4.349-10.505c-2.561-2.562-6.063-4.184-9.908-4.337c-8.491-0.338-15.451,7.17-15.451,15.667v38.028c0,7.074-4.796,13.501-11.731,14.901c-9.542,1.927-17.94-5.337-17.94-14.542V103.935c0-57.383,46.518-103.9,103.9-103.9l0,0C313.403,0.034,359.921,46.552,359.921,103.935z"/><path fill="#c4a896" d="M271.339,1.155c-50.588,7.599-88.702,52.58-88.702,105.119v79.641c-0.568,1.626-0.853,3.332-0.853,5.079v38.033c0,7.07-4.794,13.49-11.744,14.871c-9.508,1.95-17.919-5.323-17.919-14.506V103.917c0-52.336,38.724-95.651,89.068-102.843c4.835-0.69,9.793-1.057,14.832-1.057C261.223,0.017,266.341,0.424,271.339,1.155z"/><path fill="#9d6e50" d="M359.92,103.917v125.069c0,7.111-4.835,13.531-11.783,14.953c-9.549,1.91-17.879-5.363-17.879-14.547v-53.311c0-1.747-0.284-3.414-0.853-4.957v-67.208c0-28.647-11.661-54.692-30.434-73.465c-15.399-15.359-35.554-25.883-58.025-29.296c0.081,0,0.163-0.041,0.244-0.081c4.835-0.69,9.793-1.057,14.832-1.057c28.686,0,54.652,11.622,73.464,30.434C348.3,49.265,359.92,75.229,359.92,103.917z"/><path fill="#333" d="M362.281,106.286c0-28.375-11.055-55.058-31.133-75.136c-20.656-20.617-48.191-31.64-77.25-31.121c-57.445,1.109-104.179,49.824-104.179,108.593v239.651c0,18.078,14.726,32.785,32.832,32.785h47.545V485.04c0,14.88,12.08,26.96,26.92,26.96c14.88,0,26.96-12.08,26.96-26.96V381.057h45.515c18.078,0,32.789-14.707,32.789-32.785L362.281,106.286L362.281,106.286z M254.051,8.028c0.637-0.012,1.27-0.02,1.906-0.02c26.254,0,50.886,10.187,69.539,28.801c18.562,18.562,28.785,43.238,28.785,69.476v123.352c-0.104,5.171-3.578,9.592-8.363,10.55c-3.246,0.648-6.43-0.109-8.926-2.156c-2.477-2.027-3.898-5.031-3.898-8.238v-52.468c0-5-1.941-9.668-5.449-13.129c-3.324-3.324-7.738-5.254-12.43-5.437c-4.953-0.203-9.598,1.637-13.258,5.156c-3.879,3.73-6.105,8.93-6.105,14.266v96.644c0,5.273-3.523,9.809-8.383,10.785c-3.25,0.66-6.426-0.113-8.926-2.156c-2.477-2.031-3.898-5.031-3.898-8.238v-70.16c0-4.977-1.937-9.652-5.453-13.168c-3.801-3.801-9.105-5.754-14.461-5.41c-9.719,0.648-17.332,9.117-17.332,19.281v50.992c0,5.254-3.508,9.773-8.344,10.75c-3.266,0.656-6.453-0.117-8.965-2.172c-2.477-2.027-3.898-5.012-3.898-8.184v-65.953c0-4.977-1.938-9.656-5.453-13.172c-3.32-3.32-7.734-5.25-12.422-5.434c-4.945-0.238-9.598,1.637-13.266,5.152c-3.879,3.73-6.105,8.93-6.105,14.266v37.433c0,5.254-3.508,9.773-8.336,10.75c-3.266,0.668-6.453-0.109-8.965-2.172c-2.484-2.027-3.906-5.027-3.906-8.223c0-0.034-0.019-0.063-0.02-0.097V108.622C157.719,54.18,200.934,9.052,254.051,8.028z M275.976,485.04c0,10.479-8.48,18.96-18.96,18.96c-10.44,0-18.92-8.48-18.92-18.96V381.057h37.88V485.04z M329.492,373.057H182.551c-13.691,0-24.832-11.117-24.832-24.785V245.041c4.174,2.917,9.356,4.002,14.473,2.99c8.547-1.727,14.754-9.547,14.754-18.594v-37.433c0-3.172,1.328-6.269,3.648-8.496c2.078-1.996,4.641-2.992,7.406-2.93c2.676,0.105,5.187,1.207,7.082,3.098c2.004,2.004,3.109,4.676,3.109,7.516v65.953c0,5.582,2.488,10.82,6.832,14.371c4.344,3.559,10.019,4.949,15.617,3.828c8.551-1.727,14.758-9.547,14.758-18.594v-50.992c0-5.867,4.426-10.934,9.867-11.297c3.137-0.238,6.074,0.883,8.27,3.082c2.004,2.004,3.109,4.672,3.109,7.512v70.16c0,5.613,2.488,10.871,6.828,14.426c3.348,2.738,7.496,4.191,11.785,4.191c1.254,0,2.523-0.125,3.789-0.379c8.578-1.723,14.805-9.559,14.805-18.629V178.18c0-3.172,1.328-6.27,3.648-8.496c2.074-2,4.711-3.078,7.398-2.934c2.676,0.105,5.195,1.207,7.109,3.121c1.988,1.965,3.086,4.609,3.086,7.453v52.468c0,5.613,2.488,10.871,6.828,14.426c4.324,3.543,10.012,4.922,15.57,3.812c2.509-0.504,4.779-1.578,6.789-3.004v103.245C354.281,361.94,343.16,373.057,329.492,373.057z"/></svg></svg>
</defs>
</svg>
