<svg xmlns="http://www.w3.org/2000/svg" viewBox="0 0 512 512" style="enable-background:new 0 0 512 512" xml:space="preserve"><path d="M395.08 200.59c0-37.818-26.244-69.604-61.471-78.152 3.365-9.666 5.07-19.795 5.07-30.228 0-11.021-1.917-21.782-5.696-31.983-6.836-18.47-19.714-34.573-36.263-45.343a7.5 7.5 0 1 0-8.182 12.572c10.746 6.993 19.63 16.676 25.755 27.877H284.36c-9.884 0-17.925 8.041-17.925 17.925v3.469c0 2.421-1.969 4.39-4.39 4.39s-4.39-1.969-4.39-4.39V58.895c0-10.312-8.389-18.701-18.701-18.701-10.312 0-18.701 8.389-18.701 18.701v40.344c0 1.613-1.312 2.925-2.925 2.925s-2.925-1.312-2.925-2.925V73.258c0-9.884-8.041-17.925-17.925-17.925h-17.841C192.006 30.834 218.036 15 246.47 15c5.186 0 10.341.512 15.321 1.521a7.497 7.497 0 0 0 8.84-5.861 7.5 7.5 0 0 0-5.861-8.84A92.306 92.306 0 0 0 246.47 0c-38.424 0-73.188 24.205-86.502 60.224-3.78 10.204-5.697 20.965-5.697 31.986a92.566 92.566 0 0 0 7.416 36.257c-18.258 9.01-32.919 24.807-40.136 44.706a7.501 7.501 0 0 0 14.102 5.114c9.355-25.795 34.086-43.127 61.539-43.127 18.966 0 37.084 8.361 49.44 22.587-7.847 12.414-12.41 27.101-12.41 42.843 0 15.343 4.461 30.168 12.424 42.827-12.357 14.235-30.481 22.603-49.454 22.603-34.331 0-63.008-26.802-65.287-61.019a7.497 7.497 0 0 0-7.982-6.985 7.5 7.5 0 0 0-6.985 7.982c2.107 31.644 22.578 58.126 50.554 69.309.043.159.082.318.136.476l78.714 231.135a7.5 7.5 0 0 0 14.2-.001l65.226-191.563c3.056 9.598 12.054 16.572 22.652 16.572 13.106 0 23.768-10.663 23.768-23.769v-51.396c14.578-14.95 22.892-35.228 22.892-56.171zm-197.89-80.43a79.952 79.952 0 0 0-21.48 2.939 77.506 77.506 0 0 1-6.439-30.889c0-7.487 1.072-14.82 3.155-21.877h24.055a2.928 2.928 0 0 1 2.925 2.925v25.981c0 9.884 8.041 17.925 17.925 17.925s17.925-8.041 17.925-17.925V58.895a3.705 3.705 0 0 1 3.701-3.701 3.705 3.705 0 0 1 3.701 3.701v17.833c0 10.692 8.698 19.39 19.39 19.39s19.39-8.698 19.39-19.39v-3.469a2.928 2.928 0 0 1 2.925-2.925h36.164a77.088 77.088 0 0 1 3.155 21.877c0 9.733-1.77 19.143-5.256 28.046a81.411 81.411 0 0 0-3.774-.096c-23.137 0-44.01 9.834-58.697 25.526-15.108-16.125-36.461-25.527-58.765-25.527zm58.751 135.347a80.071 80.071 0 0 0 14.025 11.951v4.298c0 14.261 11.603 25.864 25.864 25.864 11.068 0 20.531-6.99 24.216-16.786a77.351 77.351 0 0 0 1.672-.127l-10.81 31.748-85.501-36.59c11.528-4.335 22.022-11.277 30.534-20.358zM197.19 281.02a78.8 78.8 0 0 0 2.065-.031l106.803 45.707-10.703 31.435-50.723-21.354a7.5 7.5 0 0 0-5.821 13.825l51.696 21.764-10.944 32.142-61.001-25.685-14.609-42.896 5.716 2.406c.95.4 1.937.589 2.907.589a7.502 7.502 0 0 0 2.914-14.415l-18.007-7.581-12.552-36.857c4.004.619 8.096.951 12.259.951zm66.584 169.862-24.131-10.162-14.609-42.898 49.684 20.92-10.944 32.14zm-10.334 30.351-7.326-21.513 12.814 5.396-5.488 16.117zm111.246-275.905a7.5 7.5 0 0 0-7.5 7.5v95.33c0 4.835-3.934 8.769-8.768 8.769-4.835 0-8.769-3.934-8.769-8.769v-36.794c0-9.086-7.392-16.478-16.478-16.478s-16.478 7.392-16.478 16.478v.392c0 5.99-4.874 10.864-10.864 10.864s-10.864-4.874-10.864-10.864v-35.192a7.5 7.5 0 0 0-15 0v11.79c-13.033-12.247-20.746-29.558-20.746-47.764 0-36.078 29.352-65.43 65.43-65.43s65.43 29.352 65.43 65.43c0 11.135-2.743 21.778-7.895 31.228v-18.991a7.497 7.497 0 0 0-7.498-7.499z"/><path d="M339.887 168.74h-1.361a7.5 7.5 0 0 0 0 15h1.361a7.5 7.5 0 0 0 0-15zM354.876 190.113h-1.361a7.5 7.5 0 0 0 0 15h1.361a7.5 7.5 0 0 0 0-15zM176.087 242.898a7.5 7.5 0 0 0 0-15h-1.361a7.5 7.5 0 0 0 0 15h1.361z"/></svg>